<svg width="279" height="193" viewBox="0 0 279 193" fill="none" xmlns="http://www.w3.org/2000/svg">
<g opacity="0.6" clip-path="url(#clip0_329_4522)">
<path d="M34.5777 132.659C37.7217 131.036 41.4177 130.825 44.9037 131.403C46.7757 131.715 48.7257 132.274 50.0037 133.687C51.2817 135.1 51.5157 137.577 50.0517 138.786C49.1817 139.507 47.9697 139.616 46.8417 139.604C44.1117 139.574 41.0817 139.093 38.9037 140.734C37.6557 141.678 36.8277 143.235 35.3457 143.698C33.8637 144.161 32.2437 143.289 31.4757 141.972C30.766 140.603 30.6092 139.012 31.0377 137.529C31.2134 136.499 31.6243 135.523 32.2384 134.679C32.8524 133.834 33.6531 133.143 34.5777 132.659Z" fill="#FA6E54"/>
<path d="M27.3843 118.746C29.3043 121.494 33.0363 120.58 34.7703 118.909C36.5043 117.237 37.2303 114.796 37.8963 112.481C39.4143 107.184 40.9503 101.659 39.8163 96.2476C39.5458 94.6133 38.8294 93.0859 37.7463 91.8345C37.1989 91.216 36.4989 90.7527 35.7164 90.491C34.934 90.2293 34.0966 90.1784 33.2883 90.3434C31.4043 90.8424 30.2403 92.6882 29.3943 94.4499C26.9022 99.6354 25.5965 105.313 25.5723 111.068C25.5723 113.744 25.8783 116.552 27.3723 118.764" fill="#FA6E54"/>
<path d="M22.1099 122.69C24.1979 120.207 24.5939 116.594 23.6639 113.485C22.7339 110.377 20.6639 107.737 18.2279 105.579C15.3856 103.045 12.078 101.091 8.48991 99.8249C7.10124 99.2607 5.60661 99.0063 4.10991 99.0794C3.36239 99.1219 2.63656 99.3468 1.99556 99.7345C1.35455 100.122 0.817771 100.661 0.431907 101.304C-0.594093 103.264 0.389907 105.639 1.45191 107.581C3.32537 110.997 5.46396 114.26 7.84791 117.339C9.76791 119.816 11.9639 122.257 14.8859 123.352C17.8079 124.446 20.8439 124.344 22.4219 122.336" fill="#FA6E54"/>
<path d="M27.2577 160.196C27.3574 159.788 27.4157 159.371 27.4317 158.951C27.5157 158.038 27.6297 156.901 27.7617 155.542C27.9292 153.863 28.1836 152.193 28.5237 150.54C28.9679 148.53 29.5698 146.557 30.3237 144.642C31.0684 142.73 32.0783 140.932 33.3237 139.303C34.3403 137.977 35.6401 136.897 37.1277 136.14C38.1412 135.646 39.2269 135.317 40.3437 135.166C40.7628 135.149 41.179 135.089 41.5857 134.986C41.1669 134.94 40.7445 134.94 40.3257 134.986C39.1696 135.079 38.0386 135.374 36.9837 135.858C35.4205 136.599 34.0489 137.691 32.9757 139.05C31.6759 140.703 30.6266 142.538 29.8617 144.497C29.0885 146.445 28.4862 148.457 28.0617 150.51C27.7388 152.183 27.5164 153.873 27.3957 155.572C27.2877 157.021 27.2517 158.194 27.2277 159.006C27.1951 159.402 27.2051 159.801 27.2577 160.196Z" fill="#1A1A19"/>
<path d="M27.4921 157.575C27.5146 157.375 27.5146 157.173 27.4921 156.973V155.314C27.4921 153.877 27.4921 151.797 27.5641 149.229C27.6901 144.089 28.1641 138.557 28.9861 130.759C29.7901 123.43 30.8761 114.892 32.0221 109.349C32.2621 108.086 32.5141 106.944 32.7421 105.958C32.9701 104.972 33.1561 104.1 33.3421 103.402C33.5281 102.705 33.6301 102.2 33.7321 101.797C33.7914 101.602 33.8257 101.4 33.8341 101.196C33.7421 101.366 33.6735 101.548 33.6301 101.737C33.5041 102.152 33.3481 102.681 33.1501 103.324C32.9521 103.968 32.7181 104.863 32.4721 105.861C32.2261 106.86 31.9381 107.984 31.6681 109.24C30.2552 115.793 29.1898 122.416 28.4761 129.082C27.6241 136.898 27.2401 144.011 27.2041 149.157C27.2041 151.737 27.2041 153.823 27.2941 155.26C27.3361 155.933 27.3721 156.462 27.3961 156.913C27.398 157.137 27.4303 157.36 27.4921 157.575Z" fill="#1A1A19"/>
<path d="M27.5221 143.854C27.5679 143.278 27.5679 142.699 27.5221 142.123C27.4244 140.552 27.2482 138.986 26.9941 137.433C26.6179 135.129 26.1111 132.849 25.4761 130.603C24.7274 127.846 23.7686 125.15 22.6081 122.54C20.6218 117.711 17.7755 113.284 14.2081 109.475C13.59 108.824 12.9328 108.212 12.2401 107.641C11.9341 107.389 11.6701 107.13 11.3941 106.932L10.6321 106.403C10.1879 106.047 9.71649 105.728 9.22212 105.447C9.13812 105.555 11.2801 106.824 13.9861 109.704C17.422 113.547 20.1795 117.949 22.1401 122.721C23.2713 125.324 24.2294 127.999 25.0081 130.729C25.7521 133.242 26.2501 135.539 26.6221 137.493C26.9941 139.447 27.1861 141.035 27.3121 142.141C27.3419 142.716 27.4121 143.289 27.5221 143.854Z" fill="#1A1A19"/>
<path d="M14.2861 168.061L15.6601 186.898H39.8101L41.1841 168.061H14.2861Z" fill="#1A1A19"/>
<path d="M44.064 160.635H11.958V168.06H44.064V160.635Z" fill="#1A1A19"/>
<path d="M11.958 186.176V188.238H13.464H43.536V186.176H11.958Z" fill="#4D4D4B"/>
<path d="M14.9459 191.858L13.4639 188.238H42.3839L40.6559 191.858H14.9459Z" fill="#4D4D4B"/>
<path d="M40.7342 174.247C40.7042 174.308 40.6658 174.365 40.6202 174.416C40.5242 174.548 40.4102 174.704 40.2602 174.897L38.8562 176.7L38.7902 176.784L38.7302 176.7L35.2742 171.89H35.4722L32.0702 176.7L31.9622 176.851L31.8422 176.712L27.8102 171.902H28.0442C27.9722 171.987 27.8942 172.083 27.8222 172.179L24.2222 176.712L24.1022 176.863L23.9942 176.706L20.5862 171.896H20.7842C19.1102 173.814 17.6822 175.438 16.5842 176.706L16.5122 176.791L16.4582 176.694C15.9002 175.768 15.4622 175.023 15.1442 174.488C15.0062 174.247 14.8922 174.055 14.8082 173.886C14.7626 173.822 14.7262 173.751 14.7002 173.676C14.7002 173.676 14.7542 173.736 14.8442 173.862L15.2162 174.428L16.5962 176.598H16.4642L20.5862 171.752L20.6942 171.632L20.7842 171.764L24.2222 176.574H23.9822L27.5822 172.035L27.8042 171.758L27.9242 171.614L28.0382 171.752C29.4542 173.442 30.8102 175.071 32.0642 176.562H31.8362L35.2742 171.752L35.3762 171.614L35.4722 171.752L38.8562 176.598H38.7362L40.2002 174.848L40.5902 174.392C40.6822 174.267 40.7302 174.219 40.7342 174.247Z" fill="#E6E6E1"/>
<path d="M41.5202 167.934C41.5202 168.018 35.4662 168.085 28.0082 168.085C20.5502 168.085 14.4902 168.018 14.4902 167.934C14.4902 167.85 20.5382 167.784 28.0082 167.784C35.4782 167.784 41.5202 167.85 41.5202 167.934Z" fill="#4D4D4B"/>
<path d="M42.7383 188.437C42.7383 188.521 36.1383 188.587 28.0503 188.587C19.9623 188.587 13.3623 188.521 13.3623 188.437C13.3623 188.353 19.9623 188.286 28.0503 188.286C36.1383 188.286 42.7383 188.353 42.7383 188.437Z" fill="#1A1A19"/>
<path d="M207.882 112.385H264C266.407 112.385 268.716 113.343 270.419 115.049C272.121 116.755 273.078 119.069 273.078 121.482V192.2H198.804V121.482C198.804 119.069 199.76 116.755 201.463 115.049C203.165 113.343 205.474 112.385 207.882 112.385Z" fill="#4D4D4B"/>
<path d="M266.826 112.794C266.916 112.794 266.982 130.561 266.982 152.476C266.982 174.392 266.916 192.158 266.826 192.158C266.736 192.158 266.67 174.392 266.67 152.476C266.67 130.561 266.742 112.794 266.826 112.794Z" fill="#1A1A19"/>
<path d="M230.238 25.7392C237.067 35.5365 240.982 47.0741 241.53 59.0122C241.878 67.0088 240.804 75.5284 244.59 82.575C250.026 92.688 261.78 92.3453 265.38 103.246C266.946 107.99 264.06 118.421 263.28 123.358C262.398 128.961 265.818 133.669 264.936 139.279C264.126 144.419 260.286 148.087 255.678 150.48C251.574 152.608 247.782 152.668 243.516 150.895C235.38 147.522 228.612 143.962 222.822 137.325C214.686 128.005 212.226 115.078 210.822 102.795C207.758 75.6299 208.378 48.1743 212.664 21.1758" fill="#FAEA87"/>
<path d="M247.633 152.043C247.717 152.016 247.803 151.994 247.891 151.977C248.065 151.935 248.329 151.893 248.665 151.79C251.195 151.101 253.464 149.671 255.181 147.684C255.826 146.926 256.32 146.05 256.633 145.105C256.932 144.028 257.103 142.92 257.143 141.804C257.186 139.229 256.924 136.657 256.363 134.144C255.841 131.414 255.163 128.504 254.959 125.348C254.859 123.736 254.974 122.119 255.301 120.538C255.677 118.895 256.186 117.287 256.825 115.728C257.478 114.128 258.051 112.497 258.541 110.84C259.049 109.146 259.192 107.362 258.961 105.609C258.681 103.864 258.015 102.204 257.011 100.751C256.029 99.3367 254.888 98.0413 253.609 96.8907C251.131 94.5699 248.449 92.682 246.157 90.5055C242.068 86.714 238.768 82.149 236.449 77.0736C235.55 75.1307 234.803 73.1204 234.217 71.0612C233.929 70.1653 233.761 69.2995 233.557 68.5179C233.353 67.7363 233.263 67.0027 233.131 66.3534C232.945 65.0367 232.801 64.0206 232.765 63.3472C232.765 63.0105 232.717 62.7459 232.705 62.5535C232.693 62.3611 232.705 62.283 232.705 62.283C232.705 62.283 232.705 62.3731 232.747 62.5535C232.789 62.7339 232.801 63.0045 232.843 63.3411C232.897 64.0326 233.059 65.0487 233.263 66.3474C233.401 66.9967 233.551 67.7182 233.713 68.5059C233.875 69.2935 234.097 70.1352 234.397 71.0311C234.999 73.0698 235.755 75.0597 236.659 76.9834C238.995 82.0126 242.291 86.5349 246.361 90.295C248.641 92.4234 251.329 94.3294 253.831 96.6622C255.127 97.8299 256.284 99.1433 257.281 100.576C258.311 102.069 258.994 103.774 259.279 105.567C259.518 107.362 259.373 109.189 258.853 110.924C258.385 112.631 257.731 114.249 257.125 115.836C256.491 117.376 255.982 118.964 255.601 120.586C255.276 122.145 255.161 123.74 255.259 125.33C255.421 128.444 256.117 131.342 256.633 134.09C257.185 136.625 257.435 139.216 257.377 141.81C257.326 142.945 257.145 144.071 256.837 145.165C256.503 146.127 255.992 147.019 255.331 147.792C254.272 149.022 252.984 150.034 251.539 150.768C250.638 151.248 249.68 151.611 248.689 151.851C248.342 151.942 247.989 152.006 247.633 152.043Z" fill="#4D4D4B"/>
<path d="M135.918 173.526L164.718 159.823C164.718 159.823 175.932 105.26 178.056 101.166C180.18 97.0711 189.036 93.5298 189.036 93.5298L187.554 167.411L184.914 184.468L144.306 188.322L135.918 173.526Z" fill="#FA6E54"/>
<path d="M111.348 186.452C111.186 186.452 110.388 186.945 111.054 188.214C111.72 189.483 116.604 193.673 118.038 192.212C119.472 190.751 117.282 188.972 117.282 188.972L111.348 186.452Z" fill="#FFCDC4"/>
<path d="M117.486 189.026C117.486 189.026 123.378 189.771 125.64 190.637C128.106 191.575 131.106 190.932 133.122 189.567C134.268 188.803 135.337 187.929 136.314 186.958L143.826 186.837C144.906 185.57 145.614 184.028 145.873 182.382C146.131 180.736 145.93 179.05 145.29 177.512C144.888 176.442 144.308 175.448 143.574 174.572C142.68 173.604 141.27 172.822 138.834 172.401L129.912 174.331C129.912 174.331 116.112 173.339 113.628 174.506C113.628 174.506 110.538 176.34 109.584 177.109C109.224 177.404 108.126 180.927 110.376 182.761C110.376 182.761 108.42 184.318 109.482 185.719L109.986 186.32C109.986 186.32 108.672 188.028 109.35 188.773C110.028 189.519 115.95 192.982 118.056 192.164C120.162 191.347 118.422 189.369 117.486 189.008" fill="#FFCDC4"/>
<path d="M111.858 179.712C112.107 179.786 112.351 179.874 112.59 179.977C113.052 180.151 113.73 180.404 114.582 180.674C115.002 180.813 115.47 180.951 115.98 181.083C116.49 181.216 117.036 181.33 117.606 181.516C118.226 181.686 118.787 182.026 119.226 182.496C119.468 182.757 119.636 183.078 119.712 183.426C119.788 183.774 119.769 184.136 119.658 184.474C119.517 184.815 119.259 185.094 118.932 185.262C118.623 185.413 118.29 185.507 117.948 185.538C117.32 185.576 116.69 185.541 116.07 185.436C115.031 185.268 114.011 185.002 113.022 184.643C112.176 184.342 111.51 184.041 111.048 183.861C110.803 183.772 110.568 183.66 110.346 183.524C110.597 183.591 110.843 183.674 111.084 183.771C111.552 183.939 112.23 184.198 113.076 184.474C114.053 184.806 115.056 185.054 116.076 185.214C116.671 185.307 117.274 185.336 117.876 185.298C118.187 185.27 118.49 185.185 118.77 185.045C119.042 184.903 119.254 184.669 119.37 184.384C119.467 184.092 119.486 183.78 119.425 183.478C119.363 183.176 119.225 182.896 119.022 182.665C118.613 182.226 118.092 181.908 117.516 181.745C116.964 181.558 116.412 181.438 115.908 181.294C115.404 181.149 114.93 180.999 114.51 180.855C113.658 180.56 112.992 180.254 112.536 180.079C112.299 179.979 112.072 179.856 111.858 179.712Z" fill="#FFA190"/>
<path d="M112.386 175.45C112.635 175.519 112.877 175.608 113.112 175.714C113.58 175.895 114.252 176.153 115.092 176.43C115.932 176.706 116.946 177.031 118.092 177.29C118.721 177.388 119.318 177.631 119.838 177.999C120.114 178.229 120.295 178.552 120.348 178.907C120.401 179.265 120.349 179.63 120.198 179.959C120.046 180.273 119.83 180.551 119.565 180.777C119.299 181.002 118.99 181.17 118.656 181.27C118.051 181.467 117.407 181.519 116.778 181.42C115.755 181.215 114.751 180.921 113.778 180.542L111.792 179.845C111.546 179.768 111.305 179.673 111.072 179.562C111.327 179.605 111.578 179.669 111.822 179.755L113.832 180.356C114.81 180.705 115.813 180.978 116.832 181.174C117.426 181.259 118.032 181.205 118.602 181.017C118.905 180.924 119.186 180.769 119.427 180.563C119.667 180.356 119.863 180.101 120 179.815C120.142 179.542 120.19 179.229 120.137 178.926C120.084 178.623 119.932 178.346 119.706 178.137C119.215 177.794 118.653 177.566 118.062 177.47C116.916 177.181 115.902 176.869 115.062 176.556C114.222 176.243 113.562 175.955 113.106 175.762C112.858 175.678 112.617 175.573 112.386 175.45Z" fill="#FFA190"/>
<path d="M115.224 176.652C115.101 176.259 115.011 175.857 114.954 175.45C114.819 175.059 114.72 174.656 114.66 174.247C114.946 174.56 115.132 174.952 115.194 175.371C115.344 175.783 115.355 176.233 115.224 176.652Z" fill="#FFA190"/>
<path d="M136.002 176.844L130.752 174.848C130.752 174.848 116.178 168.03 115.932 168.403C115.686 168.776 114.894 168.728 115.068 170.507C115.242 172.287 123.732 175.882 124.002 176.52C124.272 177.157 123.822 180.259 126.96 182.49C130.098 184.721 132.36 184.775 132.36 184.775" fill="#FFCDC4"/>
<path d="M132.36 184.721H132.222L131.862 184.685C131.4 184.611 130.944 184.501 130.5 184.354C128.864 183.796 127.352 182.924 126.048 181.787C125.165 180.958 124.54 179.891 124.248 178.714C124.097 178.067 123.993 177.41 123.936 176.748C123.926 176.673 123.907 176.598 123.882 176.526C123.848 176.468 123.8 176.418 123.744 176.382C123.607 176.282 123.465 176.19 123.318 176.105C123.024 175.931 122.718 175.762 122.394 175.594C121.134 174.915 119.784 174.235 118.428 173.454C117.733 173.061 117.058 172.634 116.406 172.173C116.068 171.935 115.751 171.67 115.458 171.379C115.302 171.23 115.166 171.06 115.056 170.874C114.996 170.772 114.956 170.66 114.936 170.543C114.924 170.436 114.924 170.327 114.936 170.219C114.888 169.783 114.965 169.343 115.158 168.95C115.277 168.765 115.434 168.607 115.62 168.487C115.695 168.438 115.764 168.38 115.824 168.313C115.824 168.313 115.824 168.313 115.872 168.259C115.901 168.237 115.937 168.226 115.974 168.229C116.008 168.225 116.042 168.225 116.076 168.229L116.238 168.271C117.024 168.511 117.75 168.83 118.476 169.131C119.916 169.732 121.29 170.333 122.598 170.934C125.22 172.137 127.56 173.207 129.528 174.133C130.02 174.355 130.482 174.59 130.926 174.782L132.21 175.287L134.268 176.105L135.564 176.628L135.894 176.772C135.972 176.772 136.008 176.821 136.008 176.827C136.008 176.833 135.966 176.827 135.888 176.79L135.546 176.676L134.232 176.189L132.156 175.45L130.86 174.963C130.404 174.776 129.942 174.548 129.45 174.325L122.502 171.181C121.188 170.58 119.814 169.978 118.374 169.377C117.654 169.082 116.922 168.776 116.166 168.529L116.034 168.499H115.986C115.986 168.499 115.986 168.463 115.986 168.439C116.154 168.547 116.028 168.475 116.064 168.499C115.992 168.588 115.907 168.665 115.812 168.728C115.652 168.826 115.516 168.96 115.416 169.119C115.247 169.472 115.18 169.866 115.224 170.255C115.22 170.443 115.263 170.629 115.35 170.796C115.45 170.963 115.571 171.116 115.71 171.253C115.994 171.533 116.301 171.789 116.628 172.017C117.276 172.486 117.954 172.894 118.626 173.285C119.976 174.067 121.314 174.752 122.58 175.432C122.898 175.606 123.18 175.774 123.51 175.961C123.665 176.049 123.815 176.145 123.96 176.249C124.047 176.308 124.117 176.389 124.164 176.484C124.194 176.571 124.214 176.662 124.224 176.754C124.281 177.409 124.379 178.06 124.518 178.702C124.792 179.848 125.388 180.891 126.234 181.709C127.512 182.842 128.992 183.725 130.596 184.312C131.032 184.466 131.48 184.589 131.934 184.679C132.09 184.715 132.21 184.727 132.294 184.739L132.36 184.721Z" fill="#FFA190"/>
<path d="M116.286 185.406C116.48 185.43 116.668 185.485 116.844 185.569C117.337 185.767 117.8 186.034 118.218 186.362C118.51 186.591 118.775 186.851 119.01 187.138C119.158 187.3 119.271 187.489 119.345 187.696C119.418 187.902 119.449 188.122 119.436 188.34C119.388 188.589 119.272 188.819 119.1 189.005C118.928 189.191 118.708 189.325 118.464 189.393C117.963 189.53 117.432 189.513 116.94 189.344C115.271 188.849 113.652 188.199 112.104 187.402C111.638 187.159 111.185 186.89 110.748 186.597C110.58 186.5 110.425 186.383 110.286 186.248C110.465 186.319 110.636 186.407 110.796 186.513C111.12 186.699 111.588 186.957 112.182 187.246C113.733 187.988 115.337 188.612 116.982 189.11C117.431 189.265 117.915 189.284 118.374 189.164C118.576 189.111 118.759 189.003 118.904 188.852C119.049 188.702 119.15 188.514 119.196 188.31C119.209 188.117 119.184 187.923 119.123 187.739C119.061 187.556 118.963 187.386 118.836 187.24C118.616 186.96 118.367 186.704 118.092 186.476C117.538 186.045 116.931 185.685 116.286 185.406Z" fill="#FFA190"/>
<g opacity="0.3">
<path d="M184.71 184.468C179.994 168.529 175.836 148.003 171.12 132.064C169.392 146.776 171.552 166.202 174.252 180.765C174.57 182.472 174.714 184.144 176.052 185.268L184.71 184.468Z" fill="#1A1A19"/>
</g>
<path d="M176.988 173.526C176.922 173.526 176.724 172.485 176.082 170.892C175.704 169.963 175.253 169.067 174.732 168.211C174.081 167.171 173.338 166.193 172.512 165.289C171.673 164.393 170.753 163.578 169.764 162.853C168.953 162.265 168.094 161.746 167.196 161.302C165.66 160.545 164.628 160.268 164.646 160.208C164.896 160.237 165.141 160.296 165.378 160.382C165.662 160.454 165.941 160.547 166.212 160.659C166.579 160.788 166.94 160.936 167.292 161.104C168.216 161.528 169.099 162.035 169.932 162.619C170.947 163.343 171.889 164.165 172.746 165.072C173.585 166 174.332 167.007 174.978 168.078C175.496 168.953 175.936 169.873 176.292 170.826C176.454 171.229 176.55 171.608 176.652 171.938C176.744 172.219 176.816 172.507 176.868 172.798C176.931 173.036 176.971 173.28 176.988 173.526Z" fill="#1A1A19"/>
<path d="M185.976 92.7842C185.976 92.7842 170.898 126.544 170.898 132.761C170.898 138.978 182.196 182.021 182.196 182.021C182.088 183.735 181.65 192.314 181.65 192.314L245.004 192.537L245.97 178.889L241.026 165.884L245.964 129.117C245.964 129.117 249.288 107.773 249.564 101.803C249.936 94.3354 224.688 85.6774 225.378 84.6433L221.022 78.7751L196.056 99.0912L191.118 84.8056L185.202 90.4032L185.976 92.7842Z" fill="#FA6E54"/>
<path d="M227.467 101.767C220.609 113.389 208.063 134.565 208.063 134.565L185.575 160.262C185.575 160.262 184.105 173.315 187.045 177.319C189.985 181.324 195.031 184.059 195.031 184.059C195.031 184.059 200.965 184.059 208.507 177.74C216.049 171.421 236.851 145.309 236.851 145.309L243.997 136.669C243.997 136.669 252.517 115.698 250.927 105.026C250.327 100.907 248.563 99.1994 246.235 97.3115C240.373 92.5797 231.301 95.2673 227.467 101.767Z" fill="#FA6E54"/>
<path d="M246.642 129.394C246.612 129.477 246.576 129.557 246.534 129.635C246.456 129.803 246.342 130.025 246.204 130.32C245.904 130.921 245.448 131.793 244.824 132.899C243.582 135.118 241.65 138.25 239.13 142.032C237.864 143.92 236.454 145.97 234.9 148.147C233.346 150.323 231.582 152.566 230.13 155.187C228.678 157.809 227.358 160.671 225.768 163.533C224.135 166.498 222.22 169.299 220.05 171.896C217.88 174.504 215.327 176.767 212.478 178.606C209.809 180.313 206.827 181.47 203.706 182.009C200.882 182.511 197.982 182.388 195.21 181.648C193.956 181.309 192.747 180.818 191.61 180.187C190.552 179.628 189.559 178.955 188.646 178.179C187.81 177.485 187.06 176.691 186.414 175.816C185.833 175.039 185.338 174.2 184.938 173.315C184.322 171.891 183.917 170.384 183.738 168.842C183.635 167.869 183.601 166.891 183.636 165.914C183.636 165.589 183.672 165.312 183.684 165.15C183.678 165.064 183.678 164.978 183.684 164.892C183.691 164.978 183.691 165.064 183.684 165.15C183.684 165.337 183.684 165.589 183.684 165.914C183.673 166.886 183.725 167.858 183.84 168.824C184.042 170.349 184.462 171.838 185.088 173.243C185.492 174.111 185.987 174.933 186.564 175.696C187.207 176.555 187.953 177.333 188.784 178.011C189.688 178.771 190.672 179.43 191.718 179.977C192.84 180.592 194.03 181.07 195.264 181.402C198.008 182.12 200.874 182.231 203.664 181.727C206.743 181.185 209.684 180.037 212.316 178.348C215.139 176.521 217.67 174.277 219.822 171.692C221.979 169.112 223.882 166.329 225.504 163.382C227.094 160.539 228.378 157.653 229.884 155.043C231.355 152.607 232.958 150.252 234.684 147.991C236.244 145.826 237.684 143.782 238.938 141.906C241.482 138.148 243.438 135.034 244.71 132.839C245.352 131.739 245.826 130.879 246.138 130.29L246.504 129.617C246.542 129.537 246.588 129.463 246.642 129.394Z" fill="#1A1A19"/>
<path d="M184.422 159.114C184.422 159.156 184.104 159.354 183.69 159.817C183.139 160.403 182.799 161.157 182.725 161.959C182.651 162.761 182.847 163.565 183.282 164.242C183.6 164.771 183.882 165.03 183.882 165.066C183.882 165.102 183.504 164.898 183.108 164.369C182.591 163.667 182.35 162.799 182.43 161.931C182.511 161.063 182.908 160.254 183.546 159.661C183.779 159.397 184.083 159.207 184.422 159.114Z" fill="#1A1A19"/>
<path d="M188.58 165.932C188.701 165.948 188.819 165.976 188.934 166.016L189.354 166.13L189.954 166.239C191.201 166.403 192.468 166.284 193.662 165.89C195.439 165.294 197.073 164.336 198.462 163.076C200.113 161.488 201.61 159.747 202.932 157.875C204.275 155.988 205.823 154.256 207.546 152.71C208.362 152.025 209.16 151.418 209.826 150.762C210.46 150.179 210.971 149.474 211.326 148.688C211.564 148.114 211.658 147.49 211.598 146.872C211.539 146.253 211.328 145.658 210.984 145.141C210.694 144.785 210.321 144.506 209.898 144.329C210.017 144.352 210.134 144.386 210.246 144.431C210.569 144.576 210.855 144.795 211.08 145.069C211.46 145.598 211.701 146.215 211.781 146.862C211.861 147.509 211.776 148.166 211.536 148.772C211.179 149.593 210.66 150.333 210.012 150.949C209.334 151.622 208.53 152.248 207.732 152.933C206.037 154.477 204.513 156.198 203.184 158.068C201.846 159.955 200.327 161.707 198.648 163.298C197.23 164.565 195.562 165.52 193.752 166.1C192.524 166.485 191.223 166.574 189.954 166.359L189.354 166.22C189.186 166.172 189.048 166.112 188.94 166.076C188.815 166.043 188.694 165.994 188.58 165.932Z" fill="#1A1A19"/>
<path d="M230.52 98.1956C230.444 98.3214 230.36 98.4419 230.268 98.5563C230.07 98.8088 229.818 99.1575 229.5 99.5604C228.816 100.414 227.874 101.689 226.722 103.276C223.786 107.447 221.115 111.798 218.724 116.305C215.892 121.572 213.552 126.46 211.758 129.947C210.87 131.697 210.138 133.104 209.604 134.066L209.022 135.166C208.957 135.298 208.878 135.423 208.788 135.539C208.833 135.399 208.892 135.265 208.962 135.136L209.526 134L211.584 129.845C213.324 126.328 215.64 121.428 218.472 116.149C220.865 111.627 223.572 107.28 226.572 103.138C227.772 101.569 228.714 100.306 229.428 99.4762L230.244 98.5082C230.324 98.3942 230.417 98.2894 230.52 98.1956Z" fill="#1A1A19"/>
<g opacity="0.3">
<path d="M183.702 164.892C186.624 166.479 189.84 166.311 193.104 165.673C196.399 165.013 199.366 163.233 201.504 160.635C201.01 163.529 199.657 166.207 197.622 168.319C195.546 170.357 192.534 171.535 189.678 171.012C186.822 170.489 183.93 167.796 183.678 164.892" fill="#1A1A19"/>
</g>
<g opacity="0.3">
<path d="M211.362 147.54C213.217 150.405 213.864 153.89 213.162 157.232C215.64 153.432 216.222 148.622 215.562 144.131C214.902 139.639 213.072 135.401 211.044 131.342C211.044 131.342 208.812 135.13 208.788 135.551C208.68 137.74 209.484 141.852 209.904 143.999C210.465 144.538 210.882 145.208 211.12 145.949C211.358 146.69 211.408 147.478 211.266 148.243" fill="#1A1A19"/>
</g>
<g opacity="0.3">
<path d="M193.614 180.62C199.578 185.28 208.428 185.496 214.95 181.672C221.232 177.987 225.102 171.349 228.69 165.006C234.252 155.182 241.032 143.03 245.004 132.46C245.004 132.46 233.874 147.678 230.52 154.238C228.284 158.672 225.746 162.947 222.924 167.032C219.731 171.635 215.414 175.341 210.384 177.797C205.355 180.253 199.782 181.376 194.196 181.059" fill="#1A1A19"/>
</g>
<path d="M181.65 192.285C181.64 192.223 181.64 192.16 181.65 192.098C181.65 191.954 181.65 191.774 181.65 191.551C181.65 191.04 181.692 190.349 181.728 189.465C181.812 187.661 181.926 185.076 182.07 181.991V182.063C180.996 178.456 179.736 174.079 178.428 169.353C176.7 163.088 175.242 157.388 174.258 153.246C173.772 151.177 173.388 149.494 173.148 148.327C173.034 147.768 172.944 147.317 172.878 146.987C172.842 146.83 172.816 146.671 172.8 146.512C172.86 146.659 172.907 146.812 172.938 146.969L173.268 148.303C173.562 149.506 173.97 151.153 174.468 153.192C175.506 157.322 177 163.01 178.728 169.269C180.03 173.995 181.272 178.372 182.328 181.985V182.027C182.142 185.112 181.986 187.679 181.872 189.507C181.812 190.379 181.764 191.076 181.728 191.587C181.728 191.804 181.692 191.984 181.68 192.128C181.676 192.181 181.666 192.234 181.65 192.285Z" fill="#1A1A19"/>
<path d="M245.022 96.9629C245.022 97.011 244.374 96.7826 243.336 96.524C241.982 96.182 240.597 95.9805 239.202 95.9228C237.807 95.8844 236.411 95.9932 235.038 96.2474C233.982 96.4458 233.34 96.6262 233.328 96.5781C233.461 96.4922 233.607 96.4273 233.76 96.3857C234.164 96.2463 234.574 96.1279 234.99 96.031C236.366 95.7092 237.778 95.5678 239.19 95.6101C240.613 95.6529 242.025 95.8792 243.39 96.2835C243.799 96.4026 244.2 96.5472 244.59 96.7164C244.89 96.8667 245.022 96.9389 245.022 96.9629Z" fill="#1A1A19"/>
<path d="M224.964 85.864C224.92 85.9734 224.866 86.0781 224.802 86.1767L224.292 87.0365C223.842 87.782 223.176 88.8402 222.33 90.1569C220.632 92.7603 218.202 96.3137 215.328 100.089C213.018 103.138 210.78 105.873 208.95 108.014L208.818 108.164L208.74 107.984C207.864 106.072 207.144 104.485 206.622 103.336C206.388 102.807 206.202 102.374 206.052 102.044C205.978 101.896 205.92 101.74 205.878 101.581C205.974 101.716 206.057 101.861 206.124 102.013C206.286 102.338 206.49 102.759 206.754 103.276C207.3 104.412 208.056 105.982 208.962 107.882L208.758 107.852C210.558 105.687 212.772 102.945 215.082 99.9031C217.95 96.1273 220.398 92.604 222.144 90.0306L224.19 86.9703L224.748 86.1406C224.807 86.0392 224.88 85.9462 224.964 85.864Z" fill="#1A1A19"/>
<path d="M239.55 182.827C239.46 182.827 239.736 179.694 240.15 175.852C240.564 172.01 240.99 168.908 241.074 168.92C241.158 168.932 240.882 172.046 240.474 175.888C240.066 179.73 239.622 182.833 239.55 182.827Z" fill="#1A1A19"/>
<path d="M196.122 182.003C196.463 183.735 196.701 185.486 196.836 187.246C197.079 188.994 197.213 190.755 197.238 192.519C196.901 190.786 196.662 189.036 196.524 187.276C196.288 185.528 196.154 183.767 196.122 182.003Z" fill="#1A1A19"/>
<path d="M228.168 113.335C228.139 113.216 228.082 113.105 228.002 113.012C227.921 112.92 227.82 112.848 227.706 112.802C227.592 112.757 227.469 112.74 227.347 112.752C227.225 112.764 227.107 112.805 227.004 112.872L226.962 112.908C226.868 112.992 226.798 113.099 226.758 113.219C226.717 113.339 226.709 113.467 226.733 113.591C226.758 113.715 226.814 113.83 226.896 113.926C226.978 114.022 227.084 114.094 227.203 114.137C227.322 114.179 227.449 114.189 227.573 114.167C227.698 114.145 227.814 114.091 227.911 114.01C228.007 113.929 228.082 113.824 228.126 113.706C228.17 113.587 228.183 113.46 228.162 113.335H228.168Z" fill="#FFFFFE"/>
<path d="M221.91 98.0512C221.881 97.9319 221.824 97.8213 221.744 97.7286C221.663 97.636 221.562 97.564 221.448 97.5186C221.334 97.4733 221.211 97.456 221.089 97.4681C220.967 97.4802 220.849 97.5214 220.746 97.5883L220.71 97.6244C220.616 97.7085 220.546 97.8157 220.506 97.9354C220.465 98.0551 220.457 98.1833 220.481 98.3073C220.506 98.4312 220.562 98.5467 220.644 98.6424C220.726 98.738 220.832 98.8106 220.951 98.8528C221.07 98.8951 221.197 98.9056 221.322 98.8834C221.446 98.8612 221.562 98.807 221.659 98.7261C221.755 98.6452 221.83 98.5404 221.874 98.4221C221.918 98.3038 221.931 98.176 221.91 98.0512Z" fill="#FFFFFE"/>
<path d="M207.552 110.359C207.523 110.239 207.466 110.129 207.385 110.036C207.305 109.943 207.203 109.871 207.089 109.826C206.975 109.781 206.852 109.763 206.73 109.775C206.608 109.788 206.491 109.829 206.388 109.896H206.352C206.258 109.979 206.187 110.086 206.147 110.206C206.106 110.325 206.098 110.453 206.122 110.577C206.145 110.701 206.201 110.817 206.283 110.912C206.365 111.008 206.47 111.081 206.588 111.124C206.707 111.167 206.834 111.178 206.958 111.156C207.083 111.135 207.199 111.081 207.296 111.001C207.393 110.921 207.468 110.817 207.513 110.699C207.558 110.581 207.571 110.453 207.552 110.329V110.359Z" fill="#FFFFFE"/>
<path d="M192.03 104.178C192.001 104.059 191.945 103.948 191.865 103.855C191.785 103.762 191.684 103.69 191.571 103.645C191.457 103.6 191.334 103.582 191.213 103.594C191.091 103.607 190.974 103.648 190.872 103.715L190.83 103.751C190.736 103.835 190.665 103.942 190.625 104.062C190.585 104.182 190.576 104.31 190.6 104.434C190.625 104.558 190.681 104.673 190.763 104.769C190.845 104.865 190.951 104.937 191.07 104.979C191.189 105.022 191.317 105.032 191.441 105.01C191.565 104.988 191.681 104.933 191.778 104.853C191.875 104.772 191.949 104.667 191.993 104.549C192.037 104.43 192.05 104.302 192.03 104.178Z" fill="#FFFFFE"/>
<path d="M189.288 98.0871C189.259 97.9678 189.202 97.8572 189.121 97.7645C189.041 97.6718 188.939 97.5999 188.825 97.5545C188.711 97.5092 188.588 97.4919 188.466 97.504C188.344 97.5161 188.227 97.5573 188.124 97.6242L188.082 97.6603C187.985 97.7442 187.912 97.8522 187.87 97.9733C187.828 98.0945 187.818 98.2245 187.842 98.3506C187.865 98.4767 187.922 98.5943 188.005 98.6918C188.088 98.7892 188.196 98.8631 188.316 98.906C188.437 98.9489 188.567 98.9594 188.693 98.9364C188.819 98.9133 188.936 98.8576 189.034 98.7747C189.132 98.6919 189.206 98.5848 189.25 98.4641C189.293 98.3435 189.304 98.2135 189.282 98.0871H189.288Z" fill="#FFFFFE"/>
<path d="M190.482 91.0527C190.453 90.9334 190.395 90.8227 190.315 90.7301C190.234 90.6374 190.133 90.5654 190.019 90.5201C189.905 90.4748 189.782 90.4575 189.66 90.4696C189.538 90.4817 189.421 90.5229 189.318 90.5898L189.276 90.6198C189.182 90.7037 189.111 90.8106 189.071 90.93C189.03 91.0495 189.022 91.1775 189.045 91.3013C189.069 91.4252 189.125 91.5407 189.207 91.6365C189.289 91.7324 189.394 91.8052 189.512 91.848C189.631 91.8907 189.758 91.9018 189.882 91.8803C190.006 91.8587 190.123 91.8052 190.22 91.725C190.317 91.6448 190.392 91.5407 190.437 91.4228C190.481 91.3049 190.495 91.1774 190.476 91.0527H190.482Z" fill="#FFFFFE"/>
<path d="M181.884 100.733C181.855 100.613 181.798 100.503 181.717 100.41C181.637 100.317 181.535 100.245 181.421 100.2C181.307 100.155 181.184 100.137 181.062 100.15C180.94 100.162 180.823 100.203 180.72 100.27L180.678 100.3C180.584 100.384 180.513 100.49 180.473 100.61C180.433 100.729 180.424 100.857 180.448 100.981C180.472 101.105 180.527 101.221 180.609 101.316C180.691 101.412 180.796 101.485 180.915 101.528C181.033 101.571 181.161 101.582 181.285 101.56C181.409 101.539 181.525 101.485 181.622 101.405C181.719 101.325 181.794 101.221 181.839 101.103C181.884 100.985 181.897 100.857 181.878 100.733H181.884Z" fill="#FFFFFE"/>
<path d="M201.822 103.522C201.793 103.403 201.737 103.293 201.657 103.2C201.577 103.107 201.476 103.035 201.363 102.99C201.249 102.944 201.126 102.927 201.005 102.939C200.883 102.951 200.766 102.993 200.664 103.06L200.622 103.096C200.528 103.18 200.457 103.287 200.417 103.407C200.377 103.526 200.368 103.655 200.392 103.778C200.417 103.902 200.473 104.018 200.555 104.114C200.637 104.209 200.743 104.282 200.862 104.324C200.981 104.366 201.109 104.377 201.233 104.355C201.357 104.332 201.473 104.278 201.57 104.197C201.667 104.116 201.741 104.012 201.785 103.893C201.829 103.775 201.842 103.647 201.822 103.522Z" fill="#FFFFFE"/>
<path d="M184.938 116.071C184.909 115.951 184.852 115.841 184.771 115.748C184.691 115.655 184.589 115.583 184.475 115.538C184.361 115.493 184.238 115.475 184.116 115.487C183.994 115.5 183.877 115.541 183.774 115.608H183.732C183.638 115.691 183.567 115.798 183.527 115.918C183.486 116.037 183.478 116.165 183.501 116.289C183.525 116.413 183.581 116.528 183.663 116.624C183.745 116.72 183.85 116.793 183.968 116.836C184.087 116.878 184.214 116.89 184.338 116.868C184.462 116.846 184.579 116.793 184.676 116.713C184.773 116.633 184.848 116.528 184.893 116.411C184.937 116.293 184.951 116.165 184.932 116.04L184.938 116.071Z" fill="#FFFFFE"/>
<path d="M169.506 152.157C169.477 152.038 169.42 151.927 169.339 151.835C169.259 151.742 169.157 151.67 169.043 151.625C168.929 151.579 168.806 151.562 168.684 151.574C168.562 151.586 168.445 151.627 168.342 151.694L168.306 151.724C168.212 151.808 168.141 151.915 168.101 152.035C168.06 152.154 168.052 152.282 168.076 152.406C168.1 152.53 168.155 152.645 168.237 152.741C168.319 152.837 168.424 152.91 168.543 152.952C168.661 152.995 168.789 153.006 168.913 152.985C169.037 152.963 169.153 152.91 169.25 152.83C169.347 152.749 169.422 152.645 169.467 152.527C169.512 152.409 169.525 152.282 169.506 152.157Z" fill="#FFFFFE"/>
<path d="M175.014 131.342C174.985 131.223 174.928 131.112 174.847 131.02C174.767 130.927 174.665 130.855 174.551 130.81C174.437 130.764 174.314 130.747 174.192 130.759C174.07 130.771 173.953 130.812 173.85 130.879L173.808 130.915C173.714 130.999 173.643 131.107 173.603 131.226C173.563 131.346 173.555 131.474 173.579 131.598C173.603 131.722 173.659 131.838 173.742 131.933C173.824 132.029 173.93 132.102 174.049 132.144C174.167 132.186 174.295 132.197 174.419 132.174C174.543 132.152 174.659 132.098 174.756 132.017C174.853 131.936 174.927 131.831 174.971 131.713C175.016 131.595 175.028 131.467 175.008 131.342H175.014Z" fill="#FFFFFE"/>
<path d="M215.622 94.7983C215.593 94.679 215.536 94.5684 215.456 94.4757C215.375 94.383 215.274 94.311 215.16 94.2657C215.046 94.2204 214.923 94.2031 214.801 94.2152C214.679 94.2273 214.561 94.2685 214.458 94.3354L214.416 94.3654C214.322 94.4493 214.252 94.5562 214.211 94.6756C214.171 94.7951 214.162 94.9231 214.186 95.0469C214.21 95.1708 214.265 95.2863 214.347 95.3821C214.429 95.478 214.534 95.5508 214.653 95.5936C214.771 95.6363 214.899 95.6474 215.023 95.6259C215.147 95.6043 215.263 95.5508 215.36 95.4706C215.458 95.3904 215.532 95.2862 215.577 95.1684C215.622 95.0505 215.636 94.923 215.616 94.7983H215.622Z" fill="#FFFFFE"/>
<path d="M234.966 136.236C234.937 136.117 234.879 136.006 234.799 135.914C234.718 135.821 234.617 135.749 234.503 135.704C234.389 135.658 234.266 135.641 234.144 135.653C234.022 135.665 233.905 135.707 233.802 135.773L233.76 135.809C233.663 135.893 233.59 136.001 233.548 136.123C233.505 136.244 233.496 136.374 233.519 136.5C233.543 136.626 233.6 136.744 233.683 136.841C233.766 136.938 233.873 137.012 233.994 137.055C234.115 137.098 234.244 137.109 234.37 137.086C234.496 137.063 234.614 137.007 234.712 136.924C234.809 136.841 234.884 136.734 234.927 136.613C234.971 136.493 234.982 136.363 234.96 136.236H234.966Z" fill="#FFFFFE"/>
<path d="M242.508 100.576C242.48 100.457 242.423 100.347 242.343 100.254C242.264 100.161 242.163 100.089 242.049 100.044C241.935 99.9982 241.813 99.9809 241.691 99.993C241.569 100.005 241.452 100.047 241.35 100.113L241.308 100.144C241.214 100.227 241.143 100.334 241.103 100.454C241.062 100.573 241.054 100.701 241.078 100.825C241.101 100.949 241.157 101.064 241.239 101.16C241.321 101.256 241.426 101.329 241.545 101.372C241.663 101.414 241.79 101.426 241.915 101.404C242.039 101.382 242.155 101.329 242.252 101.249C242.349 101.169 242.424 101.064 242.469 100.947C242.514 100.829 242.527 100.701 242.508 100.576Z" fill="#FFFFFE"/>
<path d="M239.55 123.929C239.521 123.809 239.463 123.699 239.383 123.606C239.302 123.513 239.201 123.441 239.087 123.396C238.973 123.351 238.85 123.333 238.728 123.346C238.606 123.358 238.489 123.399 238.386 123.466L238.344 123.502C238.247 123.586 238.174 123.694 238.132 123.815C238.089 123.936 238.08 124.066 238.103 124.192C238.127 124.318 238.183 124.436 238.267 124.533C238.35 124.631 238.457 124.705 238.578 124.748C238.699 124.791 238.828 124.801 238.954 124.778C239.08 124.755 239.198 124.699 239.296 124.616C239.393 124.533 239.468 124.426 239.511 124.306C239.555 124.185 239.566 124.055 239.544 123.929H239.55Z" fill="#FFFFFE"/>
<path d="M222.624 140.794C222.595 140.674 222.538 140.564 222.458 140.471C222.377 140.378 222.276 140.306 222.162 140.261C222.048 140.216 221.925 140.198 221.803 140.211C221.681 140.223 221.563 140.264 221.46 140.331L221.418 140.367C221.324 140.451 221.254 140.558 221.214 140.678C221.173 140.798 221.165 140.926 221.189 141.05C221.214 141.174 221.27 141.289 221.352 141.385C221.434 141.48 221.54 141.553 221.659 141.595C221.778 141.638 221.905 141.648 222.03 141.626C222.154 141.604 222.27 141.549 222.367 141.469C222.463 141.388 222.538 141.283 222.582 141.165C222.626 141.046 222.639 140.918 222.618 140.794H222.624Z" fill="#FFFFFE"/>
<path d="M223.338 126.749C223.309 126.629 223.251 126.519 223.171 126.426C223.09 126.333 222.989 126.261 222.875 126.216C222.761 126.171 222.638 126.153 222.516 126.165C222.394 126.177 222.277 126.219 222.174 126.286L222.132 126.322C222.035 126.406 221.962 126.514 221.92 126.635C221.878 126.756 221.868 126.886 221.892 127.012C221.915 127.138 221.972 127.256 222.055 127.353C222.138 127.451 222.245 127.525 222.366 127.567C222.487 127.61 222.616 127.621 222.742 127.598C222.868 127.575 222.986 127.519 223.084 127.436C223.181 127.353 223.256 127.246 223.299 127.125C223.343 127.005 223.354 126.875 223.332 126.749H223.338Z" fill="#FFFFFE"/>
<path d="M233.544 100.697C233.516 100.577 233.46 100.467 233.38 100.374C233.3 100.281 233.199 100.209 233.085 100.164C232.972 100.118 232.849 100.101 232.727 100.113C232.606 100.125 232.489 100.167 232.386 100.234L232.344 100.27C232.25 100.354 232.18 100.461 232.139 100.581C232.099 100.7 232.091 100.829 232.115 100.953C232.139 101.077 232.195 101.192 232.278 101.288C232.36 101.383 232.466 101.456 232.585 101.498C232.703 101.54 232.831 101.551 232.955 101.529C233.079 101.506 233.196 101.452 233.292 101.371C233.389 101.29 233.463 101.186 233.508 101.067C233.552 100.949 233.564 100.821 233.544 100.697Z" fill="#FFFFFE"/>
<path d="M219.822 87.0965C219.794 86.9773 219.738 86.8666 219.658 86.7739C219.578 86.6812 219.477 86.609 219.363 86.5636C219.25 86.5182 219.127 86.5009 219.005 86.513C218.884 86.5252 218.767 86.5665 218.664 86.6335L218.622 86.6636C218.528 86.7474 218.458 86.8543 218.417 86.9738C218.377 87.0933 218.368 87.2212 218.392 87.3451C218.416 87.4689 218.471 87.5844 218.553 87.6803C218.635 87.7761 218.741 87.849 218.859 87.8917C218.977 87.9344 219.105 87.9456 219.229 87.924C219.353 87.9024 219.469 87.8489 219.566 87.7687C219.664 87.6885 219.738 87.5844 219.783 87.4665C219.828 87.3487 219.842 87.2211 219.822 87.0965Z" fill="#FFFFFE"/>
<path d="M219.3 109.024C219.272 108.904 219.216 108.792 219.135 108.699C219.055 108.605 218.953 108.533 218.839 108.487C218.725 108.442 218.601 108.425 218.478 108.438C218.356 108.45 218.238 108.493 218.136 108.561L218.1 108.591C218.006 108.675 217.935 108.782 217.895 108.901C217.854 109.021 217.846 109.149 217.87 109.273C217.893 109.396 217.949 109.512 218.031 109.608C218.113 109.704 218.218 109.776 218.337 109.819C218.455 109.862 218.582 109.873 218.707 109.852C218.831 109.83 218.947 109.776 219.044 109.696C219.141 109.616 219.216 109.512 219.261 109.394C219.306 109.276 219.319 109.149 219.3 109.024Z" fill="#FFFFFE"/>
<path d="M201.756 175.912C201.727 175.797 201.671 175.69 201.592 175.6C201.514 175.51 201.416 175.44 201.306 175.395C201.196 175.35 201.076 175.331 200.958 175.341C200.839 175.35 200.724 175.388 200.622 175.449L200.58 175.48C200.486 175.563 200.416 175.67 200.375 175.79C200.335 175.909 200.326 176.037 200.35 176.161C200.374 176.285 200.43 176.4 200.511 176.496C200.593 176.592 200.699 176.665 200.817 176.708C200.935 176.75 201.063 176.762 201.187 176.74C201.311 176.718 201.427 176.665 201.524 176.585C201.622 176.505 201.696 176.4 201.741 176.283C201.786 176.165 201.8 176.037 201.78 175.912H201.756Z" fill="#FFFFFE"/>
<path d="M181.626 164.91C181.597 164.79 181.54 164.68 181.46 164.587C181.379 164.494 181.278 164.422 181.164 164.377C181.05 164.332 180.927 164.314 180.805 164.327C180.683 164.339 180.565 164.38 180.462 164.447L180.42 164.483C180.326 164.567 180.256 164.674 180.216 164.794C180.175 164.914 180.167 165.042 180.191 165.166C180.216 165.29 180.272 165.405 180.354 165.501C180.436 165.596 180.542 165.669 180.661 165.711C180.78 165.754 180.907 165.764 181.031 165.742C181.156 165.72 181.272 165.665 181.369 165.584C181.465 165.504 181.54 165.399 181.584 165.281C181.628 165.162 181.641 165.034 181.62 164.91H181.626Z" fill="#FFFFFE"/>
<path d="M165.348 170.303C165.319 170.184 165.262 170.073 165.181 169.98C165.101 169.888 164.999 169.816 164.885 169.77C164.771 169.725 164.648 169.708 164.526 169.72C164.404 169.732 164.287 169.773 164.184 169.84L164.148 169.87C164.054 169.954 163.983 170.061 163.943 170.18C163.902 170.3 163.894 170.428 163.917 170.552C163.941 170.675 163.997 170.791 164.079 170.887C164.161 170.983 164.266 171.055 164.384 171.098C164.503 171.141 164.63 171.152 164.754 171.131C164.878 171.109 164.995 171.055 165.092 170.975C165.189 170.895 165.264 170.791 165.309 170.673C165.353 170.555 165.367 170.428 165.348 170.303Z" fill="#FFFFFE"/>
<path d="M163.608 179.592C163.579 179.473 163.521 179.362 163.441 179.27C163.36 179.177 163.259 179.105 163.145 179.06C163.031 179.014 162.908 178.997 162.786 179.009C162.664 179.021 162.547 179.062 162.444 179.129L162.402 179.159C162.308 179.243 162.237 179.35 162.197 179.47C162.156 179.589 162.148 179.717 162.171 179.841C162.195 179.965 162.251 180.08 162.333 180.176C162.415 180.272 162.52 180.345 162.638 180.387C162.757 180.43 162.884 180.441 163.008 180.42C163.132 180.398 163.249 180.345 163.346 180.265C163.443 180.184 163.518 180.08 163.563 179.962C163.607 179.844 163.621 179.717 163.602 179.592H163.608Z" fill="#FFFFFE"/>
<path d="M178.867 182.701C178.837 182.581 178.78 182.471 178.7 182.378C178.619 182.285 178.518 182.213 178.404 182.168C178.29 182.123 178.167 182.105 178.045 182.118C177.923 182.13 177.805 182.171 177.703 182.238L177.667 182.274C177.572 182.358 177.502 182.465 177.462 182.585C177.422 182.705 177.413 182.833 177.437 182.957C177.462 183.081 177.518 183.196 177.6 183.292C177.682 183.387 177.788 183.46 177.907 183.502C178.026 183.545 178.153 183.555 178.278 183.533C178.402 183.511 178.518 183.456 178.615 183.375C178.712 183.295 178.786 183.19 178.83 183.072C178.874 182.953 178.887 182.825 178.867 182.701Z" fill="#FFFFFE"/>
<path d="M173.766 161.897C173.737 161.778 173.68 161.667 173.6 161.575C173.519 161.482 173.418 161.41 173.304 161.365C173.19 161.319 173.067 161.302 172.945 161.314C172.823 161.326 172.705 161.368 172.602 161.434L172.56 161.471C172.464 161.555 172.391 161.662 172.348 161.784C172.306 161.905 172.297 162.035 172.32 162.161C172.344 162.287 172.4 162.405 172.484 162.502C172.567 162.6 172.674 162.673 172.795 162.716C172.915 162.759 173.045 162.77 173.171 162.747C173.297 162.724 173.415 162.668 173.512 162.585C173.61 162.502 173.685 162.395 173.728 162.274C173.772 162.154 173.783 162.024 173.76 161.897H173.766Z" fill="#FFFFFE"/>
<path d="M192.487 167.189C192.459 167.068 192.402 166.957 192.322 166.863C192.242 166.77 192.14 166.697 192.025 166.652C191.911 166.606 191.787 166.589 191.665 166.602C191.542 166.615 191.425 166.657 191.323 166.726L191.287 166.756C191.192 166.839 191.122 166.946 191.081 167.066C191.041 167.185 191.032 167.313 191.056 167.437C191.08 167.561 191.136 167.677 191.217 167.772C191.299 167.868 191.405 167.941 191.523 167.984C191.642 168.026 191.769 168.038 191.893 168.016C192.017 167.995 192.133 167.941 192.231 167.861C192.328 167.781 192.402 167.676 192.447 167.559C192.492 167.441 192.506 167.313 192.487 167.189Z" fill="#FFFFFE"/>
<path d="M236.988 161.867C236.961 161.747 236.906 161.636 236.826 161.542C236.746 161.449 236.645 161.376 236.531 161.33C236.417 161.285 236.294 161.268 236.172 161.281C236.05 161.293 235.932 161.336 235.83 161.404L235.788 161.434C235.694 161.518 235.624 161.625 235.583 161.745C235.543 161.864 235.534 161.992 235.558 162.116C235.582 162.24 235.638 162.355 235.719 162.451C235.801 162.547 235.907 162.62 236.025 162.663C236.143 162.705 236.271 162.716 236.395 162.695C236.519 162.673 236.635 162.62 236.732 162.54C236.83 162.459 236.904 162.355 236.949 162.237C236.994 162.12 237.008 161.992 236.988 161.867Z" fill="#FFFFFE"/>
<path d="M209.454 188.304C209.424 188.185 209.367 188.074 209.287 187.982C209.206 187.889 209.105 187.817 208.991 187.772C208.877 187.726 208.754 187.709 208.632 187.721C208.51 187.733 208.392 187.774 208.29 187.841L208.248 187.877C208.154 187.961 208.083 188.069 208.043 188.188C208.003 188.308 207.994 188.436 208.018 188.56C208.043 188.684 208.099 188.8 208.181 188.895C208.263 188.991 208.369 189.064 208.488 189.106C208.607 189.148 208.735 189.159 208.859 189.136C208.983 189.114 209.099 189.06 209.196 188.979C209.293 188.898 209.367 188.793 209.411 188.675C209.455 188.557 209.468 188.429 209.448 188.304H209.454Z" fill="#FFFFFE"/>
<path d="M221.196 173.586C221.167 173.467 221.111 173.356 221.031 173.263C220.951 173.17 220.85 173.098 220.737 173.053C220.623 173.007 220.5 172.99 220.379 173.002C220.257 173.014 220.14 173.056 220.038 173.123L219.996 173.159C219.902 173.243 219.831 173.35 219.791 173.47C219.751 173.59 219.742 173.718 219.767 173.842C219.791 173.966 219.847 174.081 219.929 174.177C220.011 174.273 220.117 174.345 220.236 174.387C220.355 174.43 220.483 174.44 220.607 174.418C220.731 174.396 220.847 174.341 220.944 174.261C221.041 174.18 221.115 174.075 221.159 173.957C221.203 173.838 221.216 173.71 221.196 173.586Z" fill="#FFFFFE"/>
<path d="M228.174 185.557C228.147 185.437 228.092 185.325 228.014 185.231C227.935 185.137 227.836 185.063 227.723 185.016C227.61 184.968 227.488 184.948 227.366 184.958C227.244 184.967 227.126 185.005 227.022 185.07L226.986 185.106C226.892 185.19 226.821 185.297 226.781 185.417C226.741 185.536 226.732 185.665 226.757 185.789C226.781 185.912 226.837 186.028 226.919 186.124C227.002 186.219 227.107 186.292 227.226 186.334C227.345 186.376 227.473 186.387 227.597 186.365C227.721 186.342 227.837 186.288 227.934 186.207C228.031 186.126 228.105 186.022 228.149 185.903C228.193 185.785 228.206 185.657 228.186 185.532L228.174 185.557Z" fill="#FFFFFE"/>
<path d="M208.764 122.871C208.735 122.751 208.678 122.641 208.597 122.548C208.517 122.455 208.415 122.383 208.301 122.338C208.187 122.293 208.064 122.275 207.942 122.287C207.82 122.3 207.703 122.341 207.6 122.408L207.558 122.444C207.464 122.528 207.393 122.635 207.353 122.755C207.313 122.874 207.305 123.003 207.329 123.127C207.353 123.251 207.409 123.366 207.492 123.462C207.574 123.557 207.68 123.63 207.799 123.672C207.917 123.714 208.045 123.725 208.169 123.703C208.293 123.681 208.409 123.626 208.506 123.545C208.603 123.465 208.677 123.36 208.721 123.241C208.766 123.123 208.778 122.995 208.758 122.871H208.764Z" fill="#FFFFFE"/>
<path d="M224.562 153.432C224.533 153.313 224.476 153.202 224.395 153.109C224.315 153.017 224.213 152.945 224.099 152.899C223.985 152.854 223.862 152.837 223.74 152.849C223.618 152.861 223.501 152.902 223.398 152.969L223.356 152.999C223.262 153.083 223.191 153.19 223.151 153.309C223.11 153.429 223.102 153.557 223.125 153.68C223.149 153.804 223.205 153.92 223.287 154.016C223.369 154.112 223.474 154.184 223.592 154.227C223.711 154.27 223.838 154.281 223.962 154.259C224.086 154.238 224.203 154.184 224.3 154.104C224.397 154.024 224.472 153.92 224.517 153.802C224.561 153.684 224.575 153.557 224.556 153.432H224.562Z" fill="#FFFFFE"/>
<path d="M219.438 165.006C219.409 164.887 219.352 164.776 219.271 164.683C219.191 164.591 219.089 164.519 218.975 164.473C218.861 164.428 218.738 164.411 218.616 164.423C218.494 164.435 218.377 164.476 218.274 164.543L218.232 164.573C218.138 164.657 218.067 164.764 218.027 164.883C217.986 165.003 217.978 165.131 218.001 165.254C218.025 165.378 218.081 165.494 218.163 165.59C218.245 165.685 218.35 165.758 218.468 165.801C218.587 165.844 218.714 165.855 218.838 165.833C218.962 165.812 219.079 165.758 219.176 165.678C219.273 165.598 219.348 165.494 219.393 165.376C219.437 165.258 219.451 165.131 219.432 165.006H219.438Z" fill="#FFFFFE"/>
<path d="M236.28 174.301C236.251 174.182 236.193 174.071 236.113 173.979C236.032 173.886 235.931 173.814 235.817 173.769C235.703 173.723 235.58 173.706 235.458 173.718C235.336 173.73 235.219 173.771 235.116 173.838L235.074 173.874C234.98 173.958 234.909 174.066 234.869 174.185C234.829 174.305 234.82 174.433 234.845 174.557C234.869 174.681 234.925 174.797 235.007 174.892C235.09 174.988 235.195 175.061 235.314 175.103C235.433 175.145 235.561 175.156 235.685 175.133C235.809 175.111 235.925 175.057 236.022 174.976C236.119 174.895 236.193 174.79 236.237 174.672C236.281 174.554 236.294 174.426 236.274 174.301H236.28Z" fill="#FFFFFE"/>
<path d="M190.194 187.727C190.166 187.607 190.109 187.495 190.029 187.402C189.949 187.308 189.847 187.236 189.733 187.19C189.618 187.145 189.495 187.128 189.372 187.141C189.25 187.153 189.132 187.196 189.03 187.264L188.988 187.294C188.894 187.378 188.823 187.485 188.783 187.604C188.742 187.724 188.733 187.852 188.757 187.976C188.781 188.1 188.837 188.215 188.919 188.311C189 188.407 189.106 188.48 189.224 188.522C189.343 188.565 189.47 188.576 189.594 188.555C189.718 188.533 189.835 188.48 189.932 188.399C190.029 188.319 190.104 188.215 190.148 188.097C190.193 187.979 190.207 187.852 190.188 187.727H190.194Z" fill="#FFFFFE"/>
<path d="M151.794 184.21C151.765 184.09 151.707 183.98 151.627 183.887C151.546 183.794 151.445 183.722 151.331 183.677C151.217 183.632 151.094 183.614 150.972 183.627C150.85 183.639 150.733 183.68 150.63 183.747L150.588 183.783C150.491 183.867 150.418 183.975 150.376 184.096C150.334 184.217 150.324 184.347 150.348 184.473C150.371 184.599 150.428 184.717 150.511 184.814C150.594 184.912 150.701 184.986 150.822 185.029C150.943 185.072 151.072 185.082 151.198 185.059C151.324 185.036 151.442 184.98 151.54 184.897C151.638 184.814 151.712 184.707 151.755 184.587C151.799 184.466 151.81 184.336 151.788 184.21H151.794Z" fill="#FFFFFE"/>
<path d="M185.622 177.891C185.593 177.771 185.536 177.661 185.455 177.568C185.375 177.475 185.273 177.403 185.159 177.358C185.045 177.313 184.922 177.295 184.8 177.307C184.678 177.32 184.561 177.361 184.458 177.428L184.416 177.464C184.319 177.548 184.246 177.656 184.204 177.777C184.162 177.898 184.152 178.028 184.176 178.154C184.199 178.28 184.256 178.398 184.339 178.495C184.422 178.593 184.53 178.667 184.65 178.71C184.771 178.752 184.901 178.763 185.027 178.74C185.152 178.717 185.27 178.661 185.368 178.578C185.466 178.495 185.54 178.388 185.583 178.268C185.627 178.147 185.638 178.017 185.616 177.891H185.622Z" fill="#FFFFFE"/>
<path d="M153.222 171.018C153.194 170.898 153.137 170.787 153.057 170.693C152.977 170.6 152.875 170.527 152.761 170.482C152.646 170.436 152.523 170.419 152.4 170.432C152.278 170.445 152.16 170.487 152.058 170.555L152.022 170.585C151.928 170.669 151.857 170.776 151.817 170.896C151.776 171.015 151.768 171.143 151.791 171.267C151.815 171.391 151.871 171.506 151.953 171.602C152.035 171.698 152.14 171.771 152.258 171.814C152.377 171.856 152.504 171.867 152.628 171.846C152.752 171.824 152.869 171.771 152.966 171.691C153.063 171.61 153.138 171.506 153.183 171.388C153.227 171.271 153.241 171.143 153.222 171.018Z" fill="#FFFFFE"/>
<path d="M207.342 149.193C207.313 149.074 207.256 148.963 207.175 148.87C207.095 148.778 206.993 148.706 206.879 148.66C206.765 148.615 206.642 148.598 206.52 148.61C206.398 148.622 206.281 148.663 206.178 148.73L206.136 148.76C206.042 148.844 205.971 148.951 205.931 149.07C205.891 149.19 205.882 149.318 205.906 149.442C205.93 149.566 205.985 149.681 206.067 149.777C206.149 149.873 206.254 149.946 206.373 149.988C206.491 150.031 206.619 150.042 206.743 150.021C206.867 149.999 206.983 149.946 207.08 149.865C207.177 149.785 207.252 149.681 207.297 149.563C207.342 149.445 207.355 149.318 207.336 149.193H207.342Z" fill="#FFFFFE"/>
<path d="M196.014 116.071C195.985 115.951 195.928 115.841 195.847 115.748C195.767 115.655 195.665 115.583 195.551 115.538C195.437 115.493 195.314 115.475 195.192 115.487C195.07 115.5 194.953 115.541 194.85 115.608H194.808C194.714 115.691 194.643 115.798 194.603 115.918C194.562 116.037 194.554 116.165 194.578 116.289C194.601 116.413 194.657 116.528 194.739 116.624C194.821 116.72 194.926 116.793 195.045 116.836C195.163 116.878 195.29 116.89 195.415 116.868C195.539 116.846 195.655 116.793 195.752 116.713C195.849 116.633 195.924 116.528 195.969 116.411C196.014 116.293 196.027 116.165 196.008 116.04L196.014 116.071Z" fill="#FFFFFE"/>
<path d="M193.182 144.786C193.153 144.667 193.096 144.556 193.015 144.463C192.935 144.371 192.833 144.299 192.719 144.254C192.605 144.208 192.482 144.191 192.36 144.203C192.238 144.215 192.121 144.256 192.018 144.323L191.982 144.359C191.888 144.443 191.817 144.551 191.777 144.67C191.737 144.79 191.729 144.918 191.753 145.042C191.777 145.166 191.833 145.282 191.915 145.377C191.998 145.473 192.104 145.545 192.222 145.588C192.341 145.63 192.469 145.641 192.593 145.618C192.717 145.596 192.833 145.542 192.93 145.461C193.027 145.38 193.101 145.275 193.145 145.157C193.189 145.039 193.202 144.911 193.182 144.786Z" fill="#FFFFFE"/>
<path d="M188.574 135.425C188.545 135.305 188.488 135.195 188.408 135.102C188.327 135.009 188.226 134.937 188.112 134.892C187.998 134.847 187.875 134.829 187.753 134.841C187.631 134.854 187.513 134.895 187.41 134.962H187.374C187.28 135.045 187.21 135.152 187.169 135.272C187.129 135.391 187.12 135.519 187.144 135.643C187.168 135.767 187.223 135.882 187.305 135.978C187.387 136.074 187.493 136.147 187.611 136.19C187.729 136.232 187.857 136.244 187.981 136.222C188.105 136.2 188.221 136.147 188.318 136.067C188.416 135.987 188.49 135.882 188.535 135.765C188.58 135.647 188.594 135.519 188.574 135.394V135.425Z" fill="#FFFFFE"/>
<path d="M208.956 164.874C208.927 164.754 208.87 164.644 208.789 164.551C208.709 164.458 208.607 164.386 208.493 164.341C208.379 164.296 208.256 164.278 208.134 164.29C208.012 164.302 207.895 164.344 207.792 164.411L207.75 164.447C207.653 164.531 207.58 164.639 207.538 164.76C207.496 164.881 207.486 165.011 207.51 165.137C207.533 165.263 207.59 165.381 207.673 165.478C207.756 165.576 207.864 165.65 207.984 165.692C208.105 165.735 208.235 165.746 208.361 165.723C208.486 165.7 208.604 165.644 208.702 165.561C208.8 165.478 208.874 165.371 208.917 165.25C208.961 165.13 208.972 165 208.95 164.874H208.956Z" fill="#FFFFFE"/>
<path d="M194.586 159.096C194.561 158.974 194.506 158.86 194.427 158.765C194.347 158.669 194.246 158.594 194.131 158.547C194.017 158.5 193.892 158.481 193.768 158.493C193.645 158.504 193.526 158.546 193.422 158.615L193.38 158.651C193.286 158.735 193.216 158.842 193.176 158.962C193.135 159.081 193.127 159.21 193.151 159.334C193.176 159.458 193.232 159.573 193.314 159.669C193.396 159.764 193.502 159.837 193.621 159.879C193.74 159.921 193.867 159.932 193.991 159.91C194.116 159.887 194.232 159.833 194.329 159.752C194.425 159.671 194.5 159.567 194.544 159.448C194.588 159.33 194.601 159.202 194.58 159.078L194.586 159.096Z" fill="#FFFFFE"/>
<path d="M200.737 127.38C200.708 127.261 200.652 127.15 200.572 127.057C200.492 126.965 200.391 126.892 200.277 126.847C200.164 126.802 200.041 126.784 199.919 126.796C199.798 126.809 199.681 126.85 199.579 126.917L199.537 126.947C199.442 127.031 199.372 127.138 199.331 127.257C199.291 127.377 199.282 127.505 199.306 127.629C199.33 127.752 199.386 127.868 199.467 127.964C199.549 128.06 199.655 128.132 199.773 128.175C199.892 128.218 200.019 128.229 200.143 128.207C200.267 128.186 200.383 128.132 200.481 128.052C200.578 127.972 200.652 127.868 200.697 127.75C200.742 127.632 200.756 127.505 200.737 127.38Z" fill="#FFFFFE"/>
<path d="M178.867 149.836C178.837 149.717 178.78 149.606 178.7 149.514C178.619 149.421 178.518 149.349 178.404 149.304C178.29 149.258 178.167 149.241 178.045 149.253C177.923 149.265 177.805 149.307 177.703 149.373L177.667 149.41C177.572 149.494 177.502 149.601 177.462 149.721C177.422 149.84 177.413 149.968 177.437 150.092C177.462 150.216 177.518 150.332 177.6 150.428C177.682 150.523 177.788 150.596 177.907 150.638C178.026 150.68 178.153 150.691 178.278 150.669C178.402 150.646 178.518 150.592 178.615 150.511C178.712 150.43 178.786 150.326 178.83 150.207C178.874 150.089 178.887 149.961 178.867 149.836Z" fill="#FFFFFE"/>
<path d="M212.622 139.531C212.593 139.412 212.536 139.301 212.456 139.209C212.375 139.116 212.274 139.044 212.16 138.999C212.046 138.953 211.923 138.936 211.801 138.948C211.679 138.96 211.561 139.001 211.458 139.068L211.416 139.098C211.322 139.182 211.252 139.289 211.211 139.409C211.171 139.528 211.162 139.656 211.186 139.78C211.21 139.904 211.265 140.019 211.347 140.115C211.429 140.211 211.534 140.284 211.653 140.326C211.771 140.369 211.899 140.38 212.023 140.359C212.147 140.337 212.263 140.284 212.36 140.204C212.458 140.123 212.532 140.019 212.577 139.901C212.622 139.783 212.636 139.656 212.616 139.531H212.622Z" fill="#FFFFFE"/>
<path d="M243.936 112.619C243.907 112.5 243.85 112.389 243.769 112.297C243.689 112.204 243.587 112.132 243.473 112.087C243.359 112.041 243.236 112.024 243.114 112.036C242.992 112.048 242.875 112.09 242.772 112.156L242.73 112.192C242.636 112.277 242.565 112.384 242.525 112.504C242.485 112.623 242.477 112.751 242.501 112.875C242.525 112.999 242.581 113.115 242.664 113.211C242.746 113.306 242.852 113.379 242.97 113.421C243.089 113.463 243.217 113.474 243.341 113.452C243.465 113.429 243.581 113.375 243.678 113.294C243.775 113.213 243.849 113.109 243.893 112.99C243.937 112.872 243.95 112.744 243.93 112.619H243.936Z" fill="#FFFFFE"/>
<path d="M231.222 92.2431C231.193 92.1238 231.136 92.0132 231.055 91.9205C230.975 91.8279 230.873 91.7559 230.759 91.7105C230.645 91.6652 230.522 91.6479 230.4 91.66C230.278 91.6721 230.161 91.7133 230.058 91.7802L230.016 91.8163C229.922 91.9004 229.851 92.0075 229.811 92.1273C229.771 92.247 229.763 92.3752 229.787 92.4992C229.811 92.6231 229.867 92.7386 229.95 92.8343C230.032 92.9299 230.138 93.0025 230.257 93.0447C230.375 93.087 230.503 93.0975 230.627 93.0753C230.751 93.0531 230.867 92.9989 230.964 92.918C231.061 92.8371 231.135 92.7323 231.179 92.614C231.224 92.4957 231.236 92.3679 231.216 92.2431H231.222Z" fill="#FFFFFE"/>
<path d="M206.586 94.7983C206.557 94.679 206.5 94.5684 206.419 94.4757C206.339 94.383 206.237 94.311 206.124 94.2657C206.01 94.2204 205.886 94.2031 205.764 94.2152C205.642 94.2273 205.525 94.2685 205.422 94.3354L205.38 94.3654C205.286 94.4493 205.215 94.5562 205.175 94.6756C205.135 94.7951 205.126 94.9231 205.15 95.0469C205.174 95.1708 205.229 95.2863 205.311 95.3821C205.393 95.478 205.498 95.5508 205.617 95.5936C205.735 95.6363 205.863 95.6474 205.987 95.6259C206.111 95.6043 206.227 95.5508 206.324 95.4706C206.421 95.3904 206.496 95.2862 206.541 95.1684C206.586 95.0505 206.599 94.923 206.58 94.7983H206.586Z" fill="#FFFFFE"/>
<path d="M181.453 21.6567C176.731 24.663 174.853 30.9821 175.741 34.7158C176.197 36.5977 177.049 38.4916 176.677 40.3856C176.359 42.027 175.177 43.3437 174.277 44.7626C172.794 47.1512 172.112 49.9526 172.332 52.757C172.552 55.5614 173.662 58.2217 175.499 60.3487C177.336 62.4758 179.804 63.9581 182.542 64.5787C185.28 65.1994 188.145 64.9258 190.717 63.7981" fill="#FAEA87"/>
<path d="M178.656 46.3019C167.16 20.9654 194.508 8.23703 209.424 12.4578C223.446 16.426 229.428 23.4185 231.738 32.816C234.048 42.2134 233.934 52.4046 230.256 61.3571C228.456 65.7703 225.18 70.2556 220.446 70.8087" fill="#FAEA87"/>
<path d="M192.126 108.176C191.928 96.067 191.784 79.4425 191.784 79.5087C191.784 79.5748 181.422 77.7831 179.244 64.219C178.176 57.467 178.518 46.398 179.082 37.3493C179.598 29.2024 184.98 19.2097 193.08 20.0695L218.37 26.4728C219.557 26.5977 220.654 27.1653 221.443 28.063C222.232 28.9606 222.656 30.1228 222.63 31.3188L220.986 83.7294" fill="#FFCDC4"/>
<path d="M183.606 45.6285C183.596 46.0791 183.762 46.5157 184.07 46.8449C184.377 47.1741 184.801 47.3698 185.25 47.3901C185.47 47.4107 185.691 47.3869 185.901 47.3202C186.112 47.2534 186.307 47.1451 186.474 47.0016C186.642 46.8581 186.78 46.6823 186.878 46.4847C186.977 46.287 187.036 46.0715 187.05 45.8509C187.058 45.4001 186.891 44.9637 186.585 44.6339C186.278 44.304 185.855 44.1066 185.406 44.0833C185.186 44.0635 184.964 44.0881 184.754 44.1556C184.544 44.223 184.349 44.3319 184.181 44.4759C184.013 44.6198 183.876 44.796 183.777 44.9939C183.678 45.1919 183.62 45.4076 183.606 45.6285Z" fill="#1A1A19"/>
<path d="M201.558 45.6285C201.55 46.0781 201.717 46.5132 202.024 46.8411C202.331 47.169 202.754 47.3639 203.202 47.3841C203.422 47.4047 203.643 47.3809 203.853 47.3142C204.064 47.2474 204.259 47.1391 204.426 46.9956C204.594 46.8521 204.732 46.6763 204.83 46.4787C204.929 46.2811 204.988 46.0656 205.002 45.845C205.012 45.3943 204.845 44.9577 204.538 44.6285C204.231 44.2993 203.807 44.1036 203.358 44.0833C203.138 44.0627 202.916 44.0867 202.705 44.1538C202.494 44.2209 202.299 44.3298 202.131 44.4739C201.963 44.6181 201.826 44.7945 201.728 44.9929C201.629 45.1912 201.571 45.4074 201.558 45.6285Z" fill="#1A1A19"/>
<path d="M181.734 42.466C181.944 42.7005 183.294 41.7686 185.16 41.8648C187.026 41.961 188.364 42.911 188.58 42.6885C188.682 42.5923 188.472 42.1774 187.89 41.7205C187.102 41.1301 186.149 40.8002 185.166 40.7765C184.194 40.7423 183.236 41.0181 182.43 41.5642C181.842 41.973 181.632 42.3578 181.734 42.466Z" fill="#1A1A19"/>
<path d="M199.482 42.911C199.698 43.1394 201.012 42.1534 202.878 42.1534C204.744 42.1534 206.124 43.0793 206.322 42.8509C206.424 42.7486 206.202 42.3398 205.602 41.9069C204.791 41.3457 203.827 41.0515 202.842 41.0651C201.87 41.0651 200.924 41.3769 200.142 41.955C199.566 42.3999 199.374 42.8088 199.482 42.911Z" fill="#1A1A19"/>
<path d="M193.074 57.3408C193.074 57.2326 191.922 57.0342 190.038 56.7876C189.558 56.7395 189.108 56.6433 189.03 56.3187C188.988 55.8241 189.099 55.3285 189.348 54.8997C189.792 53.7453 190.266 52.5308 190.758 51.2562C192.72 46.0734 194.136 41.8046 193.926 41.7264C193.716 41.6483 191.958 45.7909 190.002 50.9796L188.646 54.6472C188.346 55.2238 188.259 55.8883 188.4 56.5231C188.47 56.6914 188.577 56.8417 188.713 56.9625C188.849 57.0834 189.011 57.1716 189.186 57.2205C189.45 57.2949 189.722 57.3333 189.996 57.3348C191.892 57.437 193.068 57.443 193.074 57.3408Z" fill="#1A1A19"/>
<path d="M191.784 79.5086C198.163 79.6063 204.444 77.9288 209.928 74.6626C209.928 74.6626 205.344 84.1022 191.784 82.8335V79.5086Z" fill="#FFA190"/>
<path d="M199.02 40.2474C199.2 40.7584 201.072 40.5119 203.262 40.7825C205.452 41.0531 207.228 41.6423 207.522 41.1853C207.654 40.9689 207.342 40.4879 206.628 39.9828C205.672 39.3789 204.593 39.0006 203.47 38.8767C202.347 38.7527 201.211 38.8863 200.148 39.2674C199.344 39.604 198.936 40.0069 199.02 40.2474Z" fill="#1A1A19"/>
<path d="M220.308 49.1879C220.506 49.0917 227.562 45.9652 227.646 54.0941C227.73 62.2229 219.564 60.6296 219.546 60.3951C219.528 60.1606 220.308 49.1879 220.308 49.1879Z" fill="#FFCDC4"/>
<path d="M221.994 57.2807C222.03 57.2807 222.138 57.3769 222.378 57.4851C222.717 57.6203 223.095 57.6203 223.434 57.4851C224.286 57.1604 224.994 55.7896 225.018 54.3225C225.036 53.6263 224.895 52.9351 224.604 52.3023C224.527 52.0487 224.388 51.8179 224.201 51.6303C224.014 51.4427 223.783 51.3039 223.53 51.2261C223.368 51.1842 223.196 51.201 223.044 51.2736C222.893 51.3461 222.772 51.4698 222.702 51.6229C222.594 51.8514 222.648 52.0138 222.606 52.0258C222.564 52.0378 222.426 51.8935 222.492 51.5568C222.535 51.3556 222.645 51.1752 222.804 51.0457C222.914 50.96 223.039 50.8968 223.173 50.8597C223.306 50.8225 223.446 50.8122 223.584 50.8293C223.918 50.8921 224.229 51.0395 224.49 51.2573C224.75 51.4752 224.951 51.7563 225.072 52.0739C225.426 52.774 225.603 53.5501 225.588 54.3346C225.552 55.97 224.73 57.5152 223.56 57.8639C223.343 57.9295 223.114 57.9458 222.89 57.9115C222.666 57.8771 222.452 57.7931 222.264 57.6655C222.012 57.4791 221.97 57.2927 221.994 57.2807Z" fill="#FFA190"/>
<path d="M190.38 16.0471C185.868 18.386 184.008 27.6331 185.874 32.3709C187.74 37.1088 192.774 39.4176 197.736 40.5058C202.698 41.5941 207.564 41.7083 212.46 40.3615C212.796 43.6563 214.77 47.0414 217.962 47.9132C222.192 49.0615 226.452 45.1835 227.394 40.8966C228.336 36.6097 226.92 32.1966 225.528 28.03" fill="#FAEA87"/>
<path d="M226.17 45.5383C226.17 45.5383 225.966 45.7788 225.54 46.1396C224.945 46.6446 224.322 47.1163 223.674 47.5525C222.706 48.2217 221.642 48.7387 220.518 49.0857C219.115 49.5292 217.605 49.506 216.216 49.0195C214.848 48.4673 213.702 47.4754 212.958 46.1997C212.355 45.1807 211.958 44.0531 211.788 42.8808C211.67 42.1012 211.627 41.3118 211.662 40.5239C211.649 40.2357 211.684 39.9472 211.764 39.6702C211.854 39.6702 211.764 40.9027 212.112 42.8207C212.318 43.9352 212.725 45.0028 213.312 45.9712C214.025 47.1466 215.095 48.0613 216.366 48.5806C217.666 49.0307 219.074 49.0601 220.392 48.6648C221.482 48.3489 222.522 47.8814 223.482 47.2759C225.15 46.2298 226.122 45.4722 226.17 45.5383Z" fill="#1A1A19"/>
<path d="M193.626 62.5597C193.864 63.2645 194.204 63.9308 194.634 64.5378C194.85 64.8418 195.128 65.0962 195.449 65.2838C195.771 65.4715 196.129 65.5882 196.5 65.6261C196.896 65.6234 197.285 65.5226 197.632 65.3327C197.98 65.1428 198.275 64.8698 198.492 64.5378C198.91 63.8574 199.103 63.062 199.044 62.2651C199.014 61.5496 198.684 60.6959 197.976 60.6117C197.678 60.6012 197.383 60.6674 197.118 60.8041L193.386 62.3192" fill="#FFA190"/>
<path d="M195.114 65.6321C195.114 65.5178 195.954 65.8485 197.106 65.3856C197.759 65.1328 198.295 64.6466 198.612 64.0207C198.791 63.639 198.887 63.2239 198.896 62.8023C198.904 62.3807 198.824 61.9621 198.66 61.5737C198.573 61.3755 198.465 61.1879 198.336 61.0145C198.186 60.8582 198.21 60.8642 198.054 60.8882C197.898 60.9123 197.652 61.0446 197.454 61.1227L196.854 61.3752C196.056 61.6999 195.33 61.9765 194.724 62.211C193.524 62.6679 192.726 62.9084 192.69 62.8122C192.654 62.716 193.362 62.3312 194.538 61.7661C195.138 61.4835 195.828 61.1648 196.614 60.798L197.214 60.5275C197.436 60.4373 197.598 60.3411 197.898 60.2449C198.077 60.1853 198.271 60.1853 198.45 60.2449C198.614 60.315 198.756 60.427 198.864 60.5696C199.264 61.0911 199.506 61.7174 199.56 62.3732C199.615 63.0291 199.479 63.6867 199.17 64.2672C198.971 64.6357 198.701 64.961 198.375 65.2242C198.05 65.4873 197.675 65.6832 197.274 65.8004C196.752 65.9721 196.194 65.995 195.66 65.8666C195.276 65.8004 195.102 65.6742 195.114 65.6321Z" fill="#1A1A19"/>
<path d="M229.422 43.6144C228.594 43.5543 221.892 44.4261 222.42 56.902C222.912 68.5601 231.072 65.9928 233.676 61.6037C236.124 57.4491 237.552 44.1856 229.422 43.6144Z" fill="#4D4D4B"/>
<path d="M233.544 45.0875C233.525 44.9802 233.515 44.8717 233.514 44.7628C233.514 44.5163 233.514 44.2037 233.478 43.8068C233.478 42.9471 233.418 41.7446 233.376 40.2535C233.316 37.1931 233.232 32.9303 233.13 28.0181L233.28 28.1624H229.83L229.986 28.0061C229.986 28.932 230.034 29.912 230.064 30.9101C230.178 35.5878 230.286 39.9288 230.376 43.6024V43.7106H230.274C228.857 44.038 227.599 44.8502 226.716 46.0074C226.047 46.9047 225.563 47.9267 225.294 49.0136C225.114 49.7139 224.991 50.4278 224.928 51.148C224.928 51.3946 224.898 51.587 224.892 51.7132C224.886 51.8395 224.892 51.9116 224.892 51.9116C224.884 51.8457 224.884 51.7791 224.892 51.7132C224.892 51.587 224.892 51.3946 224.892 51.142C224.921 50.4125 225.021 49.6875 225.192 48.9775C225.442 47.8588 225.918 46.8031 226.59 45.8751C227.495 44.6705 228.792 43.82 230.256 43.4701L230.154 43.6024C230.052 39.9529 229.926 35.5938 229.794 30.9101C229.764 29.9181 229.74 28.938 229.716 28.0061V27.8438H233.478V27.9941C233.532 32.9123 233.58 37.1691 233.616 40.2354C233.616 41.7265 233.616 42.929 233.616 43.7888C233.616 44.1856 233.616 44.4983 233.616 44.7388C233.608 44.8578 233.584 44.9751 233.544 45.0875Z" fill="#4D4D4B"/>
<path d="M229.422 28.0121C229.422 28.0121 225.918 19.799 217.572 15.7406C214.38 14.1475 211.027 12.9018 207.57 12.0249C207.57 12.0249 212.442 10.8705 220.32 14.3818C223.92 15.9811 227.52 18.0554 229.92 21.1759C231.432 23.154 233.328 27.02 233.322 28.0121H229.422Z" fill="#4D4D4B"/>
<path d="M207.822 127.5C207.822 127.5 207.87 127.44 207.972 127.338C208.074 127.236 208.23 127.079 208.422 126.869C208.998 126.259 209.539 125.616 210.042 124.945C210.843 123.871 211.575 122.746 212.232 121.578C213.012 120.213 213.828 118.602 214.71 116.804C216.48 113.197 218.526 108.856 220.65 103.865C221.706 101.37 222.786 98.7186 223.866 95.9228L224.67 93.8064C224.924 93.0657 225.247 92.351 225.636 91.672C226.052 90.968 226.654 90.3935 227.376 90.0126C227.744 89.81 228.157 89.7045 228.576 89.7059C228.805 89.7217 229.025 89.8008 229.212 89.9344C229.389 90.0782 229.528 90.2643 229.614 90.4755V90.5176V90.5657C229.563 90.852 229.453 91.1244 229.29 91.3654C229.109 91.6163 228.842 91.7918 228.54 91.8584C227.964 91.9384 227.377 91.8309 226.866 91.5517C226.33 91.3011 225.893 90.8778 225.624 90.3494C225.356 89.821 225.271 89.2178 225.384 88.6357C225.507 88.0375 225.858 87.511 226.362 87.1687C226.86 86.8206 227.46 86.6492 228.066 86.6817C228.38 86.6838 228.688 86.7647 228.963 86.917C229.238 87.0693 229.47 87.2881 229.638 87.5535C229.723 87.7054 229.763 87.8785 229.752 88.0523C229.741 88.2261 229.681 88.3931 229.578 88.5335C229.38 88.785 229.116 88.9764 228.816 89.0866C228.313 89.2782 227.762 89.3021 227.244 89.1548C226.726 89.0075 226.27 88.6969 225.942 88.2689C225.623 87.8326 225.484 87.2903 225.552 86.7538C225.605 86.231 225.814 85.7363 226.152 85.3349C226.496 84.9293 226.976 84.6641 227.502 84.5893C227.768 84.5546 228.038 84.5821 228.291 84.6698C228.544 84.7574 228.773 84.9028 228.96 85.0944C229.152 85.3015 229.255 85.5755 229.248 85.8579C229.245 85.9987 229.212 86.1372 229.152 86.2646C229.092 86.3919 229.007 86.5053 228.9 86.5975C228.704 86.774 228.47 86.9019 228.215 86.9709C227.961 87.0398 227.694 87.0478 227.436 86.9943C227.187 86.9288 226.953 86.8115 226.752 86.6499C226.55 86.4883 226.385 86.2861 226.266 86.0564C226.034 85.6254 225.885 85.1541 225.828 84.6675C225.659 83.7225 225.77 82.7485 226.146 81.8657C226.357 81.4153 226.72 81.0549 227.172 80.8496C227.634 80.6781 228.145 80.6954 228.594 80.8977C228.83 80.9829 229.037 81.132 229.193 81.3285C229.348 81.5249 229.447 81.7609 229.476 82.01C229.488 82.2646 229.421 82.5168 229.285 82.732C229.149 82.9472 228.949 83.115 228.714 83.2125C228.501 83.3222 228.264 83.3794 228.024 83.3794C227.784 83.3794 227.548 83.3222 227.334 83.2125C226.928 82.9774 226.623 82.6007 226.476 82.1543C226.34 81.7309 226.314 81.2801 226.398 80.8436C226.445 80.418 226.538 79.9987 226.674 79.593C226.81 79.1759 227.062 78.8065 227.4 78.5288C227.733 78.2614 228.12 78.0705 228.534 77.9696C228.75 77.9078 228.979 77.9078 229.194 77.9696C229.401 78.0414 229.588 78.1609 229.74 78.3183C229.893 78.4687 230.013 78.6487 230.094 78.8474C230.181 79.0613 230.181 79.3009 230.094 79.5148C229.998 79.7126 229.843 79.8762 229.651 79.9837C229.459 80.0911 229.239 80.1373 229.02 80.1161C228.614 80.1102 228.22 79.9778 227.892 79.7373C227.271 79.2781 226.843 78.6025 226.692 77.8433C226.535 77.0939 226.652 76.3129 227.022 75.6428C227.185 75.3213 227.416 75.04 227.7 74.8191C227.98 74.606 228.308 74.4637 228.654 74.4042C229.001 74.3337 229.361 74.3847 229.674 74.5485C229.829 74.6328 229.961 74.7544 230.057 74.9024C230.154 75.0504 230.212 75.2201 230.226 75.3963C230.224 75.728 230.113 76.0498 229.908 76.311C229.704 76.5722 229.419 76.758 229.098 76.8393C228.797 76.9034 228.484 76.881 228.196 76.7746C227.907 76.6682 227.654 76.4822 227.466 76.238C227.106 75.8032 226.895 75.2633 226.866 74.6988C226.918 73.7157 227.121 72.7464 227.466 71.8249C227.712 70.9591 227.934 70.1654 228.138 69.456C228.54 68.043 228.852 66.9428 229.074 66.1852C229.176 65.8184 229.26 65.5358 229.32 65.3374C229.38 65.139 229.416 65.0488 229.416 65.0488C229.416 65.0488 229.416 65.151 229.35 65.3434C229.284 65.5358 229.224 65.8365 229.134 66.2032C228.93 66.9668 228.63 68.0731 228.252 69.486L227.61 71.8609C227.406 72.7328 227.01 73.6647 227.052 74.6868C227.096 75.2155 227.306 75.7166 227.652 76.1178C227.818 76.3335 228.041 76.4984 228.295 76.5941C228.55 76.6897 228.826 76.7121 229.092 76.6589C229.362 76.5895 229.601 76.4351 229.777 76.2186C229.952 76.002 230.052 75.7348 230.064 75.4564C230.052 75.3153 230.005 75.1794 229.927 75.0608C229.85 74.9423 229.744 74.8448 229.62 74.777C229.349 74.6424 229.041 74.6022 228.744 74.6627C228.43 74.7167 228.133 74.8468 227.88 75.0415C227.629 75.246 227.424 75.5023 227.28 75.7931C226.983 76.4098 226.905 77.1098 227.058 77.7772C227.202 78.475 227.6 79.0943 228.174 79.5148C228.462 79.7218 228.805 79.837 229.158 79.8455C229.324 79.8655 229.493 79.8342 229.641 79.7558C229.789 79.6774 229.909 79.5555 229.986 79.4066C230.023 79.2397 230.013 79.0658 229.957 78.9043C229.901 78.7429 229.801 78.6004 229.668 78.4927C229.545 78.3675 229.395 78.271 229.23 78.2101C229.059 78.1653 228.879 78.1653 228.708 78.2101C228.33 78.2924 227.979 78.4697 227.689 78.7252C227.398 78.9808 227.177 79.3063 227.046 79.6711C226.915 80.061 226.829 80.4643 226.788 80.8736C226.707 81.2739 226.732 81.6885 226.86 82.0761C226.98 82.4547 227.237 82.7745 227.58 82.972C227.754 83.0593 227.947 83.1047 228.141 83.1047C228.336 83.1047 228.528 83.0593 228.702 82.972C228.882 82.902 229.035 82.7786 229.143 82.6184C229.25 82.4582 229.306 82.269 229.302 82.0761C229.276 81.8819 229.196 81.6989 229.072 81.5472C228.948 81.3954 228.785 81.2809 228.6 81.2163C228.22 81.05 227.791 81.035 227.4 81.1743C227.017 81.3534 226.709 81.6621 226.53 82.046C226.186 82.8764 226.088 83.7887 226.248 84.6735C226.301 85.1218 226.437 85.5562 226.65 85.9541C226.748 86.1453 226.884 86.314 227.051 86.4496C227.217 86.5852 227.41 86.6847 227.616 86.7418C227.827 86.7873 228.046 86.7821 228.254 86.7267C228.463 86.6713 228.655 86.5673 228.816 86.4231C228.891 86.3564 228.952 86.2752 228.995 86.1842C229.038 86.0933 229.063 85.9946 229.067 85.894C229.071 85.7934 229.054 85.6931 229.018 85.5991C228.982 85.5051 228.928 85.4193 228.858 85.3469C228.702 85.1922 228.513 85.0755 228.305 85.0057C228.097 84.9358 227.876 84.9147 227.658 84.9441C227.207 85.0102 226.797 85.2416 226.506 85.5934C226.192 85.932 225.999 86.3666 225.96 86.8277C225.921 87.2887 226.037 87.7496 226.29 88.1367C226.579 88.507 226.977 88.7755 227.428 88.9031C227.879 89.0307 228.359 89.0107 228.798 88.8461C229.033 88.7494 229.24 88.5942 229.398 88.3952C229.466 88.3018 229.505 88.191 229.511 88.0758C229.518 87.9607 229.491 87.8462 229.434 87.7459C229.29 87.5292 229.095 87.3517 228.865 87.229C228.636 87.1063 228.38 87.0422 228.12 87.0424C227.59 87.0009 227.062 87.1491 226.63 87.4606C226.199 87.7721 225.891 88.2268 225.762 88.7439C225.665 89.246 225.735 89.7664 225.963 90.2242C226.191 90.6819 226.563 91.0514 227.022 91.2752C227.468 91.5289 227.984 91.6303 228.492 91.5638C228.721 91.4925 228.923 91.3542 229.073 91.1667C229.223 90.9791 229.313 90.751 229.332 90.5116V90.6018C229.274 90.4356 229.169 90.2901 229.029 90.1833C228.889 90.0765 228.722 90.0129 228.546 90.0005C228.174 89.9988 227.808 90.0941 227.484 90.2771C226.808 90.6316 226.245 91.1691 225.858 91.8283C225.478 92.4875 225.162 93.1822 224.916 93.9026L224.1 96.025C223.02 98.8148 221.928 101.436 220.86 103.961C218.724 108.952 216.66 113.305 214.86 116.888C213.966 118.692 213.138 120.285 212.34 121.65C211.668 122.814 210.92 123.933 210.102 124.999C209.434 125.912 208.669 126.751 207.822 127.5Z" fill="#FFFFFE"/>
<path d="M236.676 37.7642C236.603 37 236.419 36.2506 236.13 35.5396C235.258 33.6273 233.729 32.0929 231.822 31.2167C230.512 30.6239 229.104 30.2794 227.67 30.2006C226.019 30.1154 224.363 30.2407 222.744 30.5733C219.306 31.2106 215.694 32.6957 211.65 33.309C209.678 33.5706 207.681 33.5706 205.71 33.309C203.879 33.0328 202.087 32.5445 200.37 31.854C197.453 30.677 194.801 28.9271 192.57 26.7073C191.068 25.223 189.797 23.5204 188.802 21.6569C188.633 21.3729 188.485 21.0775 188.358 20.773L188.07 20.1056C187.998 19.9433 187.944 19.805 187.896 19.6968C187.873 19.6513 187.856 19.6027 187.848 19.5525C187.879 19.5931 187.905 19.6375 187.926 19.6848L188.124 20.0816L188.442 20.7309C188.578 21.0315 188.735 21.3227 188.91 21.6027C189.939 23.4267 191.224 25.0931 192.726 26.551C196.268 30.0275 200.821 32.2866 205.728 33.0024C207.671 33.261 209.64 33.261 211.584 33.0024C215.574 32.4011 219.192 30.9221 222.672 30.2968C224.314 29.9679 225.992 29.8507 227.664 29.948C229.129 30.037 230.564 30.4022 231.894 31.0243C233.833 31.9348 235.372 33.5263 236.22 35.4975C236.43 36.034 236.57 36.596 236.634 37.169V37.6139C236.655 37.6616 236.669 37.7123 236.676 37.7642Z" fill="#4D4D4B"/>
<path d="M227.623 24.8073C227.481 24.8421 227.336 24.8662 227.191 24.8794C226.909 24.9215 226.489 24.9816 225.955 25.0778C224.887 25.2522 223.357 25.5949 221.473 26.0639C219.269 26.6592 217.025 27.0953 214.759 27.3686C211.974 27.6544 209.164 27.5918 206.395 27.1822C203.624 26.7795 200.911 26.0489 198.313 25.0057C196.182 24.1606 194.142 23.1031 192.223 21.8491C191.419 21.302 190.699 20.797 190.087 20.316C189.475 19.835 188.959 19.4201 188.563 19.0473L187.651 18.1876C187.447 17.9891 187.339 17.8809 187.351 17.8689C187.473 17.9483 187.587 18.0388 187.693 18.1395L188.641 18.9511C189.049 19.3119 189.595 19.6967 190.195 20.1536C190.795 20.6106 191.539 21.1096 192.343 21.6387C196.62 24.3425 201.415 26.1183 206.419 26.8515C209.166 27.2547 211.952 27.3233 214.717 27.0559C216.97 26.8104 219.203 26.4086 221.401 25.8534C223.291 25.4145 224.839 25.1019 225.919 24.9576C226.459 24.8854 226.879 24.8433 227.167 24.8253C227.317 24.8035 227.47 24.7975 227.623 24.8073Z" fill="#4D4D4B"/>
<path d="M228.51 65.0909C228.43 65.0753 228.351 65.0511 228.276 65.0188C228.067 64.9306 227.866 64.824 227.676 64.7001C226.951 64.2223 226.348 63.5796 225.918 62.8242C225.303 61.6944 224.934 60.4462 224.838 59.1626C224.7 57.6105 224.7 56.0491 224.838 54.4969C224.968 52.9453 225.225 51.4069 225.606 49.8974C225.879 48.6506 226.329 47.4498 226.944 46.332C227.387 45.5738 228.004 44.9327 228.744 44.4621C228.933 44.3375 229.134 44.2328 229.344 44.1495C229.494 44.0954 229.578 44.0713 229.578 44.0834C229.578 44.0954 229.272 44.2216 228.786 44.5644C228.108 45.0618 227.547 45.7021 227.142 46.4402C226.565 47.553 226.145 48.7408 225.894 49.9696C225.53 51.4673 225.281 52.991 225.15 54.527C225.024 56.0596 225.024 57.6 225.15 59.1325C225.227 60.3901 225.562 61.6183 226.134 62.74C226.53 63.4839 227.088 64.1291 227.766 64.6279C228.222 64.9466 228.528 65.0608 228.51 65.0909Z" fill="#1A1A19"/>
<path d="M201.524 63.2333L195.365 64.444C194.439 64.6262 193.835 65.5268 194.017 66.4554L194.062 66.6855C194.244 67.6142 195.142 68.2193 196.069 68.0371L202.228 66.8264C203.154 66.6442 203.758 65.7436 203.576 64.815L203.531 64.5849C203.349 63.6562 202.451 63.0511 201.524 63.2333Z" fill="#4D4D4B"/>
<path d="M202.704 64.1468L231.174 55.2003C231.512 55.0943 231.879 55.1265 232.193 55.2898C232.508 55.453 232.745 55.7342 232.854 56.0721C232.909 56.2457 232.928 56.4287 232.911 56.61C232.894 56.7913 232.84 56.9672 232.753 57.1273C232.666 57.2873 232.548 57.4281 232.406 57.5412C232.263 57.6543 232.099 57.7375 231.924 57.7856L202.812 65.6619L202.704 64.1468Z" fill="#4D4D4B"/>
<path d="M223.746 60.2149C224.051 60.0801 224.366 59.9695 224.688 59.8842L227.292 59.0905C228.384 58.7538 229.728 58.3931 231.144 57.9301C231.494 57.7995 231.811 57.5943 232.074 57.3289C232.333 57.0642 232.478 56.7077 232.476 56.3368C232.475 56.1546 232.416 55.9775 232.308 55.8306C232.2 55.6838 232.049 55.5748 231.876 55.5191C231.481 55.4183 231.065 55.4308 230.676 55.5552L222.138 58.3089L219.54 59.1146C219.243 59.2375 218.936 59.336 218.622 59.4092C218.922 59.2629 219.233 59.1403 219.552 59.0424L222.12 58.1406C224.298 57.401 227.286 56.3729 230.646 55.2967C231.093 55.1671 231.567 55.1671 232.014 55.2967C232.242 55.3793 232.44 55.5292 232.581 55.7267C232.723 55.9242 232.801 56.16 232.806 56.403C232.807 56.8531 232.63 57.2853 232.314 57.6055C231.998 57.8833 231.626 58.0885 231.222 58.2067C229.752 58.6697 228.438 58.9943 227.328 59.307L224.724 60.0104C224.405 60.1092 224.078 60.1776 223.746 60.2149Z" fill="#1A1A19"/>
<path d="M177.222 38.3655C178.194 41.7926 174.72 44.7327 173.496 48.0816C172.296 51.3163 173.316 54.9418 174.774 58.0683C176.232 61.1948 178.152 64.1529 178.896 67.5139C180.738 75.8111 173.25 84.7516 174.696 93.127C175.212 96.1813 176.442 99.3679 177.504 102.272C178.53 105.01 178.53 108.029 177.504 110.768C175.884 115.578 173.136 117.832 171.204 122.51C170.214 124.915 170.292 127.584 170.34 130.17C170.388 132.755 170.376 135.461 169.224 137.782C168.072 140.102 165.444 141.894 162.948 141.221C164.295 142.733 166.102 143.758 168.089 144.137C170.076 144.517 172.133 144.229 173.94 143.319C177.222 141.563 179.058 138.004 180.63 134.625C188.238 118.265 192.264 116.882 192.03 98.8328C192.03 97.6724 191.802 79.5929 191.802 79.5929C190.225 79.1688 188.714 78.5316 187.308 77.699C178.812 71.8188 178.5 61.3451 178.566 53.2223" fill="#FAEA87"/>
<path d="M194.202 93.127V99.9391C194.202 99.9391 188.976 126.664 187.404 141.509C185.832 156.354 185.574 160.274 185.574 160.274C185.574 160.274 189.324 166.136 197.166 156.18C205.008 146.223 206.406 144.654 209.544 144.479C209.544 144.479 205.71 102.735 205.884 101.19C206.079 100.094 206.559 99.0691 207.276 98.2195L194.202 93.127Z" fill="#FFCDC4"/>
<path d="M204.486 77.759C204.486 77.759 195.948 89.1105 195.252 90.6738C194.556 92.237 194.202 93.1148 194.202 93.1148L207.276 98.1833L220.002 84.2104L224.706 71.8067L223.308 57.1363C223.308 57.1363 220.524 56.9619 220.002 59.409C219.682 60.9584 219.563 62.5428 219.648 64.1227L215.748 60.9782L209.454 59.0602C209.454 59.0602 207.972 61.5013 210.414 62.7278C212.856 63.9544 213.552 63.9303 213.552 63.9303L215.748 67.7723L214.788 72.0772L210.336 67.8685C209.905 67.4605 209.345 67.2166 208.753 67.1793C208.161 67.142 207.575 67.3135 207.096 67.6641L204.216 69.7564L201.522 68.5539L196.296 73.2376L194.202 75.1556C194.202 75.1556 195.6 77.777 198.402 76.5565L201.192 75.354L204.486 77.759Z" fill="#FFCDC4"/>
<path d="M194.202 95.4296C194.195 95.3075 194.195 95.185 194.202 95.0629C194.202 94.8224 194.232 94.4616 194.286 93.9987C194.357 93.4205 194.467 92.8479 194.616 92.2851C194.803 91.5081 195.111 90.7655 195.528 90.0845C197.484 87.0783 200.562 82.8696 204.402 77.6929V77.8492L201.09 75.4081H201.204L199.482 76.1717C198.891 76.4606 198.277 76.6999 197.646 76.8872C196.96 77.0519 196.238 76.9689 195.606 76.6527C194.964 76.3218 194.431 75.8125 194.07 75.1857L194.022 75.1015L194.1 75.0294C196.344 72.913 198.846 70.7785 201.414 68.4938L201.492 68.4277L201.576 68.4758L203.898 69.8526H203.748L206.46 68.0489C206.934 67.7423 207.36 67.4476 207.87 67.135C208.148 66.9968 208.458 66.9377 208.767 66.9642C209.076 66.9907 209.372 67.1018 209.622 67.2853L214.908 71.7646L214.662 71.8488C214.95 70.5561 215.262 69.1552 215.574 67.7423V67.8505L213.378 64.0085L213.516 64.0867C213.143 64.0357 212.778 63.9367 212.43 63.7921C212.088 63.6658 211.746 63.5215 211.404 63.3712C211.062 63.2209 210.726 63.0525 210.39 62.8902C210.216 62.806 210.048 62.6918 209.88 62.5956C209.716 62.4781 209.564 62.3453 209.424 62.1988C209.223 61.9846 209.066 61.7323 208.963 61.4567C208.86 61.181 208.813 60.8876 208.824 60.5934C208.844 60.0188 209.002 59.4575 209.286 58.958L209.346 58.8558L209.466 58.8919L215.754 60.8159H215.784L219.684 63.9604L219.438 64.0927C219.354 62.5357 219.465 60.9744 219.768 59.4451C219.832 59.0507 219.979 58.6743 220.198 58.3407C220.417 58.007 220.704 57.7236 221.04 57.509C221.711 57.1123 222.482 56.9181 223.26 56.9499H223.422V57.0822C223.914 62.295 224.376 67.2132 224.802 71.7526V71.7826C223.062 76.3521 221.478 80.5007 220.074 84.1743L210.222 95.0689L207.546 97.9729C207.24 98.2916 207.006 98.5441 206.844 98.7185L206.598 98.965C206.598 98.965 206.67 98.8688 206.82 98.6944L207.498 97.9308L210.138 94.9907L219.942 84.1683V84.1984L224.622 71.7886V71.8488C224.184 67.3094 223.716 62.3972 223.212 57.1784L223.35 57.3166C222.635 57.2873 221.926 57.4669 221.31 57.8337C221.008 58.0263 220.75 58.2816 220.555 58.5824C220.359 58.8831 220.23 59.2224 220.176 59.5773C219.876 61.0785 219.767 62.612 219.852 64.1408V64.4895L219.582 64.2731L215.622 61.1105H215.676L209.388 59.1925L209.562 59.1204C209.309 59.5736 209.168 60.0805 209.148 60.5994C209.138 60.8537 209.178 61.1077 209.266 61.3462C209.355 61.5847 209.49 61.8031 209.664 61.9883C209.789 62.1155 209.923 62.2321 210.066 62.337C210.228 62.4272 210.372 62.5234 210.54 62.6076C210.876 62.77 211.206 62.9383 211.542 63.0826C212.175 63.3917 212.841 63.6238 213.528 63.774H213.624L213.66 63.8342L215.856 67.6761L215.886 67.7302V67.7904C215.568 69.2033 215.286 70.6042 214.968 71.8969L214.914 72.1494L214.716 71.981L209.448 67.5138C209.244 67.361 209.001 67.2679 208.747 67.2445C208.493 67.2212 208.237 67.2686 208.008 67.3815C207.564 67.6461 207.084 67.9828 206.628 68.2774L203.91 70.0811L203.838 70.1292L203.76 70.0871L201.438 68.7043H201.606C199.038 70.977 196.53 73.1114 194.28 75.2157L194.31 75.0594C194.642 75.6396 195.134 76.1115 195.726 76.4182C196.304 76.7128 196.969 76.7896 197.598 76.6347C198.216 76.4534 198.818 76.2222 199.398 75.9432L201.12 75.1857H201.186L201.24 75.2218L204.546 77.6748L204.636 77.741L204.57 77.8312C200.712 83.0079 197.604 87.1805 195.624 90.1567C195.208 90.8251 194.894 91.5528 194.694 92.3152C194.541 92.8725 194.423 93.4387 194.34 94.0107C194.274 94.4736 194.244 94.8344 194.226 95.0689C194.208 95.3034 194.202 95.4296 194.202 95.4296Z" fill="#FFA190"/>
<path d="M210.379 80.3865C210.319 80.3865 210.547 79.4606 210.643 77.9815C210.706 77.1193 210.566 76.2544 210.234 75.4563C209.734 74.5216 209.021 73.7183 208.152 73.1114C206.602 71.9204 204.985 70.8183 203.311 69.8106L201.781 68.9087C201.584 68.8114 201.399 68.6925 201.229 68.554C201.44 68.6054 201.642 68.6885 201.829 68.8005C202.213 68.9748 202.759 69.2514 203.419 69.6182C205.136 70.5781 206.78 71.6633 208.338 72.8649C209.246 73.4993 209.984 74.348 210.487 75.336C210.831 76.1765 210.959 77.0904 210.859 77.9935C210.807 78.5896 210.709 79.1807 210.565 79.7612C210.532 79.9773 210.469 80.1878 210.379 80.3865Z" fill="#FFA190"/>
<path d="M219.528 74.9392C219.567 74.4097 219.641 73.8834 219.75 73.3639C219.938 72.1102 220.028 70.8438 220.02 69.5761C220.004 68.3048 219.892 67.0365 219.684 65.7822C219.569 65.267 219.487 64.7449 219.438 64.219C219.659 64.7033 219.814 65.2148 219.9 65.7401C220.454 68.263 220.477 70.8739 219.966 73.406C219.889 73.9343 219.742 74.4499 219.528 74.9392Z" fill="#FFA190"/>
<path d="M279.222 192.369C279.222 192.459 218.226 192.525 143.022 192.525C67.8183 192.525 6.82227 192.459 6.82227 192.369C6.82227 192.279 67.8003 192.212 143.052 192.212C218.304 192.212 279.222 192.285 279.222 192.369Z" fill="#1A1A19"/>
<path d="M202.151 192.519C203.559 190.372 205.458 188.593 207.69 187.33C209.923 186.067 212.424 185.356 214.985 185.256C223.751 184.955 228.131 192.519 228.131 192.519H202.151Z" fill="#4D4D4B"/>
<path d="M218.952 192.285C218.836 191.854 218.75 191.416 218.694 190.974C218.222 188.888 216.981 187.058 215.22 185.851C214.832 185.634 214.457 185.393 214.098 185.13C214.551 185.199 214.983 185.368 215.364 185.623C216.32 186.182 217.14 186.949 217.762 187.866C218.385 188.784 218.796 189.829 218.964 190.926C219.058 191.374 219.054 191.838 218.952 192.285Z" fill="#1A1A19"/>
<path d="M196.728 192.2V192.14C196.713 191.256 196.352 190.412 195.722 189.792C195.093 189.172 194.244 188.826 193.362 188.827H118.758C117.865 188.827 117.009 189.183 116.377 189.815C115.746 190.448 115.392 191.306 115.392 192.2H196.728Z" fill="#4D4D4B"/>
<path d="M53.9033 61.213C53.9033 62.7882 55.1033 156.679 55.1033 156.679L124.703 173.46H130.421L126.761 42.3879H121.529L53.9033 61.213Z" fill="#1A1A19"/>
<path d="M68.6218 152.777L47.0518 192.387H66.7678C63.2398 192.038 97.9678 192.387 97.9678 192.387L66.7678 184.096L76.5298 161.88L75.6958 152.777H68.6218Z" fill="#1A1A19"/>
<path d="M69.1016 160.088L66.7676 86.2609L87.9596 84.2227L90.5696 163.052L83.0036 163.437L69.1016 160.088Z" fill="#1A1A19"/>
<path d="M93.5335 165.974C93.5335 165.974 93.5335 165.86 93.5335 165.631C93.5335 165.403 93.5335 165.06 93.5335 164.621C93.5335 163.719 93.5335 162.403 93.5335 160.701C93.5335 157.268 93.5035 152.284 93.4855 146.013C93.4855 133.465 93.4555 115.806 93.4315 95.3276L93.5815 95.478H68.5315L68.6875 95.3216V98.7247C68.6875 118.698 68.6875 137.283 68.6575 152.771V152.801C62.1655 164.723 56.7835 174.62 53.0155 181.534C51.1315 184.985 49.6495 187.691 48.6355 189.543C48.1315 190.457 47.7415 191.154 47.4775 191.641C47.2135 192.128 47.0635 192.351 47.0635 192.351C47.0635 192.351 47.1895 192.098 47.4415 191.623C47.6935 191.148 48.0775 190.421 48.5635 189.501C49.5655 187.643 51.0235 184.925 52.8835 181.462L68.4235 152.674V152.741C68.4235 137.253 68.4235 118.668 68.4235 98.6946V95.1353H93.7315V95.2856C93.7315 115.764 93.6895 133.423 93.6775 145.971C93.6775 152.236 93.6415 157.226 93.6295 160.659C93.6295 162.361 93.6295 163.665 93.6295 164.579C93.6295 165.018 93.6295 165.355 93.6295 165.589C93.6295 165.824 93.5335 165.974 93.5335 165.974Z" fill="#4D4D4B"/>
<path d="M76.5294 161.88C76.6074 161.91 73.6074 168.866 69.8274 177.404C66.0474 185.941 62.9154 192.844 62.8374 192.808C62.7594 192.772 65.7594 185.821 69.5394 177.277C73.3194 168.734 76.4514 161.843 76.5294 161.88Z" fill="#4D4D4B"/>
<path d="M124.674 173.484C124.674 173.484 124.674 173.369 124.674 173.147C124.674 172.924 124.674 172.582 124.674 172.155C124.674 171.271 124.644 169.99 124.626 168.343C124.626 165.036 124.524 160.25 124.41 154.334C124.188 142.501 123.654 126.165 123 108.122C122.346 90.0787 121.848 73.7248 121.68 61.8923C121.59 55.976 121.548 51.1841 121.566 47.8772C121.566 46.2298 121.566 44.9492 121.566 44.0653C121.566 43.6384 121.566 43.3138 121.566 43.0733C121.566 42.8328 121.566 42.7366 121.566 42.7366C121.566 42.7366 121.566 42.8508 121.566 43.0733C121.566 43.2957 121.566 43.6384 121.566 44.0653C121.566 44.9492 121.566 46.2298 121.614 47.8772C121.614 51.1841 121.71 55.97 121.83 61.8863C122.088 73.7188 122.622 90.0727 123.276 108.11C123.93 126.147 124.428 142.495 124.596 154.328C124.686 160.244 124.722 165.036 124.71 168.343C124.71 169.99 124.71 171.271 124.71 172.155C124.71 172.582 124.71 172.912 124.71 173.147C124.71 173.381 124.674 173.484 124.674 173.484Z" fill="#4D4D4B"/>
<path d="M89.7361 94.7805C89.8261 94.7805 89.8921 110.485 89.8921 129.851C89.8921 149.217 89.8261 164.922 89.7361 164.922C89.6461 164.922 89.5801 149.223 89.5801 129.851C89.5801 110.479 89.6521 94.7805 89.7361 94.7805Z" fill="#4D4D4B"/>
<path d="M52.2413 186.206C52.1278 186.076 52.0273 185.935 51.9413 185.785C51.8393 185.641 51.7253 185.466 51.5933 185.268C51.4345 185.033 51.2903 184.788 51.1613 184.535C50.2815 182.944 49.6407 181.232 49.2593 179.454C48.7058 176.812 48.5802 174.098 48.8873 171.415C49.2628 168.132 50.1411 164.925 51.4913 161.91C52.2057 160.353 53.1193 158.895 54.2093 157.575C54.4575 157.247 54.7239 156.934 55.0073 156.637C55.2833 156.336 55.5473 156.035 55.8233 155.747C56.4233 155.2 56.9453 154.641 57.5393 154.166C58.6339 153.232 59.7994 152.386 61.0253 151.634C61.6253 151.31 62.1713 150.967 62.7353 150.696C63.2993 150.426 63.8333 150.137 64.3733 149.945C66.0408 149.229 67.8032 148.759 69.6053 148.55C70.0924 148.483 70.5837 148.453 71.0753 148.46C71.247 148.445 71.4196 148.445 71.5913 148.46C71.4226 148.489 71.2523 148.507 71.0813 148.514C70.5929 148.536 70.1061 148.587 69.6233 148.664C67.8419 148.918 66.1036 149.416 64.4573 150.143C63.9233 150.342 63.4073 150.642 62.8433 150.901C62.2793 151.159 61.7393 151.502 61.1573 151.851C59.9501 152.605 58.8027 153.451 57.7253 154.382C57.1253 154.851 56.6033 155.41 56.0333 155.951C55.7633 156.234 55.4993 156.553 55.2293 156.829C54.9533 157.126 54.6929 157.437 54.4493 157.761C53.3767 159.064 52.4772 160.501 51.7733 162.036C50.4361 165.02 49.5601 168.191 49.1753 171.439C48.8568 174.092 48.958 176.779 49.4753 179.4C49.8379 181.165 50.4437 182.871 51.2753 184.468C51.3946 184.726 51.5309 184.975 51.6833 185.214L52.0013 185.749C52.0913 185.896 52.1715 186.049 52.2413 186.206Z" fill="#4D4D4B"/>
</g>
<defs>
<clipPath id="clip0_329_4522">
<rect width="279" height="193" fill="white"/>
</clipPath>
</defs>
</svg>
