<svg width="32" height="33" viewBox="0 0 32 33" fill="none" xmlns="http://www.w3.org/2000/svg">
<path d="M13.7352 18.76L26.8033 5.69664M14.1066 19.3474L17.0699 25.2739C17.786 26.7061 18.144 27.4222 18.5951 27.6142C18.9865 27.7808 19.434 27.7507 19.7995 27.533C20.2207 27.2822 20.4794 26.5245 20.9969 25.0092L26.5957 8.61255C27.0466 7.2922 27.272 6.63203 27.1177 6.19532C26.9835 5.81539 26.6846 5.51654 26.3047 5.38231C25.868 5.22802 25.2078 5.45344 23.8875 5.90429L7.49079 11.5032C5.97547 12.0206 5.21781 12.2793 4.96699 12.7005C4.74933 13.066 4.71917 13.5135 4.88581 13.9049C5.07784 14.356 5.79393 14.7141 7.22611 15.4301L13.1526 18.3934C13.3886 18.5114 13.5066 18.5704 13.6088 18.6492C13.6995 18.7191 13.7809 18.8005 13.8508 18.8912C13.9296 18.9934 13.9886 19.1114 14.1066 19.3474Z" stroke="#1A1A19" stroke-width="2" stroke-linecap="round" stroke-linejoin="round"/>
</svg>
